%TF.GenerationSoftware,KiCad,Pcbnew,9.0.8*%
%TF.CreationDate,2026-03-21T17:58:42-04:00*%
%TF.ProjectId,control_board_1,636f6e74-726f-46c5-9f62-6f6172645f31,1*%
%TF.SameCoordinates,Original*%
%TF.FileFunction,Soldermask,Top*%
%TF.FilePolarity,Negative*%
%FSLAX46Y46*%
G04 Gerber Fmt 4.6, Leading zero omitted, Abs format (unit mm)*
G04 Created by KiCad (PCBNEW 9.0.8) date 2026-03-21 17:58:42*
%MOMM*%
%LPD*%
G01*
G04 APERTURE LIST*
G04 Aperture macros list*
%AMRoundRect*
0 Rectangle with rounded corners*
0 $1 Rounding radius*
0 $2 $3 $4 $5 $6 $7 $8 $9 X,Y pos of 4 corners*
0 Add a 4 corners polygon primitive as box body*
4,1,4,$2,$3,$4,$5,$6,$7,$8,$9,$2,$3,0*
0 Add four circle primitives for the rounded corners*
1,1,$1+$1,$2,$3*
1,1,$1+$1,$4,$5*
1,1,$1+$1,$6,$7*
1,1,$1+$1,$8,$9*
0 Add four rect primitives between the rounded corners*
20,1,$1+$1,$2,$3,$4,$5,0*
20,1,$1+$1,$4,$5,$6,$7,0*
20,1,$1+$1,$6,$7,$8,$9,0*
20,1,$1+$1,$8,$9,$2,$3,0*%
%AMFreePoly0*
4,1,37,0.800000,0.796148,0.878414,0.796148,1.032228,0.765552,1.177117,0.705537,1.307515,0.618408,1.418408,0.507515,1.505537,0.377117,1.565552,0.232228,1.596148,0.078414,1.596148,-0.078414,1.565552,-0.232228,1.505537,-0.377117,1.418408,-0.507515,1.307515,-0.618408,1.177117,-0.705537,1.032228,-0.765552,0.878414,-0.796148,0.800000,-0.796148,0.800000,-0.800000,-1.400000,-0.800000,
-1.403843,-0.796157,-1.439018,-0.796157,-1.511114,-0.766294,-1.566294,-0.711114,-1.596157,-0.639018,-1.596157,-0.603843,-1.600000,-0.600000,-1.600000,0.600000,-1.596157,0.603843,-1.596157,0.639018,-1.566294,0.711114,-1.511114,0.766294,-1.439018,0.796157,-1.403843,0.796157,-1.400000,0.800000,0.800000,0.800000,0.800000,0.796148,0.800000,0.796148,$1*%
%AMFreePoly1*
4,1,37,0.000000,0.796148,0.078414,0.796148,0.232228,0.765552,0.377117,0.705537,0.507515,0.618408,0.618408,0.507515,0.705537,0.377117,0.765552,0.232228,0.796148,0.078414,0.796148,-0.078414,0.765552,-0.232228,0.705537,-0.377117,0.618408,-0.507515,0.507515,-0.618408,0.377117,-0.705537,0.232228,-0.765552,0.078414,-0.796148,0.000000,-0.796148,0.000000,-0.800000,-0.600000,-0.800000,
-0.603843,-0.796157,-0.639018,-0.796157,-0.711114,-0.766294,-0.766294,-0.711114,-0.796157,-0.639018,-0.796157,-0.603843,-0.800000,-0.600000,-0.800000,0.600000,-0.796157,0.603843,-0.796157,0.639018,-0.766294,0.711114,-0.711114,0.766294,-0.639018,0.796157,-0.603843,0.796157,-0.600000,0.800000,0.000000,0.800000,0.000000,0.796148,0.000000,0.796148,$1*%
%AMFreePoly2*
4,1,37,0.603843,0.796157,0.639018,0.796157,0.711114,0.766294,0.766294,0.711114,0.796157,0.639018,0.796157,0.603843,0.800000,0.600000,0.800000,-0.600000,0.796157,-0.603843,0.796157,-0.639018,0.766294,-0.711114,0.711114,-0.766294,0.639018,-0.796157,0.603843,-0.796157,0.600000,-0.800000,0.000000,-0.800000,0.000000,-0.796148,-0.078414,-0.796148,-0.232228,-0.765552,-0.377117,-0.705537,
-0.507515,-0.618408,-0.618408,-0.507515,-0.705537,-0.377117,-0.765552,-0.232228,-0.796148,-0.078414,-0.796148,0.078414,-0.765552,0.232228,-0.705537,0.377117,-0.618408,0.507515,-0.507515,0.618408,-0.377117,0.705537,-0.232228,0.765552,-0.078414,0.796148,0.000000,0.796148,0.000000,0.800000,0.600000,0.800000,0.603843,0.796157,0.603843,0.796157,$1*%
%AMFreePoly3*
4,1,37,1.403843,0.796157,1.439018,0.796157,1.511114,0.766294,1.566294,0.711114,1.596157,0.639018,1.596157,0.603843,1.600000,0.600000,1.600000,-0.600000,1.596157,-0.603843,1.596157,-0.639018,1.566294,-0.711114,1.511114,-0.766294,1.439018,-0.796157,1.403843,-0.796157,1.400000,-0.800000,-0.800000,-0.800000,-0.800000,-0.796148,-0.878414,-0.796148,-1.032228,-0.765552,-1.177117,-0.705537,
-1.307515,-0.618408,-1.418408,-0.507515,-1.505537,-0.377117,-1.565552,-0.232228,-1.596148,-0.078414,-1.596148,0.078414,-1.565552,0.232228,-1.505537,0.377117,-1.418408,0.507515,-1.307515,0.618408,-1.177117,0.705537,-1.032228,0.765552,-0.878414,0.796148,-0.800000,0.796148,-0.800000,0.800000,1.400000,0.800000,1.403843,0.796157,1.403843,0.796157,$1*%
G04 Aperture macros list end*
%ADD10RoundRect,0.250000X0.600000X0.600000X-0.600000X0.600000X-0.600000X-0.600000X0.600000X-0.600000X0*%
%ADD11C,1.700000*%
%ADD12RoundRect,0.800000X0.000010X-0.800000X0.000010X0.800000X-0.000010X0.800000X-0.000010X-0.800000X0*%
%ADD13C,1.600000*%
%ADD14FreePoly0,90.000000*%
%ADD15FreePoly1,90.000000*%
%ADD16FreePoly2,90.000000*%
%ADD17FreePoly3,90.000000*%
%ADD18RoundRect,0.200000X0.600000X-0.600000X0.600000X0.600000X-0.600000X0.600000X-0.600000X-0.600000X0*%
%ADD19C,2.200000*%
%ADD20C,1.850000*%
%ADD21C,2.700000*%
%ADD22RoundRect,0.250001X-1.099999X1.099999X-1.099999X-1.099999X1.099999X-1.099999X1.099999X1.099999X0*%
%ADD23C,3.200000*%
%ADD24C,2.000000*%
G04 APERTURE END LIST*
D10*
%TO.C,H2*%
X64000000Y-28000000D03*
D11*
X61460000Y-28000000D03*
X64000000Y-30540000D03*
X61460000Y-30540000D03*
X64000000Y-33080000D03*
X61460000Y-33080000D03*
X64000000Y-35620000D03*
X61460000Y-35620000D03*
X64000000Y-38160000D03*
X61460000Y-38160000D03*
X64000000Y-40700000D03*
X61460000Y-40700000D03*
X64000000Y-43240000D03*
X61460000Y-43240000D03*
X64000000Y-45780000D03*
X61460000Y-45780000D03*
%TD*%
D12*
%TO.C,A1*%
X29980000Y-61420000D03*
D13*
X29980000Y-62220000D03*
D12*
X32520000Y-61420000D03*
D13*
X32520000Y-62220000D03*
D14*
X35060000Y-61420000D03*
D15*
X35060000Y-62220000D03*
D12*
X37600000Y-61420000D03*
D13*
X37600000Y-62220000D03*
D12*
X40140000Y-61420000D03*
D13*
X40140000Y-62220000D03*
D12*
X42680000Y-61420000D03*
D13*
X42680000Y-62220000D03*
D12*
X45220000Y-61420000D03*
D13*
X45220000Y-62220000D03*
D14*
X47760000Y-61420000D03*
D15*
X47760000Y-62220000D03*
D12*
X50300000Y-61420000D03*
D13*
X50300000Y-62220000D03*
D12*
X52840000Y-61420000D03*
D13*
X52840000Y-62220000D03*
D12*
X55380000Y-61420000D03*
D13*
X55380000Y-62220000D03*
D12*
X57920000Y-61420000D03*
D13*
X57920000Y-62220000D03*
D14*
X60460000Y-61420000D03*
D15*
X60460000Y-62220000D03*
D12*
X63000000Y-61420000D03*
D13*
X63000000Y-62220000D03*
D12*
X65540000Y-61420000D03*
D13*
X65540000Y-62220000D03*
D12*
X68080000Y-61420000D03*
D13*
X68080000Y-62220000D03*
D12*
X70620000Y-61420000D03*
D13*
X70620000Y-62220000D03*
D14*
X73160000Y-61420000D03*
D15*
X73160000Y-62220000D03*
D12*
X75700000Y-61420000D03*
D13*
X75700000Y-62220000D03*
D12*
X78240000Y-61420000D03*
D13*
X78240000Y-62220000D03*
X78240000Y-80000000D03*
D12*
X78240000Y-80800000D03*
D13*
X75700000Y-80000000D03*
D12*
X75700000Y-80800000D03*
D16*
X73160000Y-80000000D03*
D17*
X73160000Y-80800000D03*
D13*
X70620000Y-80000000D03*
D12*
X70620000Y-80800000D03*
D13*
X68080000Y-80000000D03*
D12*
X68080000Y-80800000D03*
D13*
X65540000Y-80000000D03*
D12*
X65540000Y-80800000D03*
D13*
X63000000Y-80000000D03*
D12*
X63000000Y-80800000D03*
D16*
X60460000Y-80000000D03*
D17*
X60460000Y-80800000D03*
D13*
X57920000Y-80000000D03*
D12*
X57920000Y-80800000D03*
D13*
X55380000Y-80000000D03*
D12*
X55380000Y-80800000D03*
D13*
X52840000Y-80000000D03*
D12*
X52840000Y-80800000D03*
D13*
X50300000Y-80000000D03*
D12*
X50300000Y-80800000D03*
D16*
X47760000Y-80000000D03*
D17*
X47760000Y-80800000D03*
D13*
X45220000Y-80000000D03*
D12*
X45220000Y-80800000D03*
D13*
X42680000Y-80000000D03*
D12*
X42680000Y-80800000D03*
D13*
X40140000Y-80000000D03*
D12*
X40140000Y-80800000D03*
D13*
X37600000Y-80000000D03*
D12*
X37600000Y-80800000D03*
D16*
X35060000Y-80000000D03*
D17*
X35060000Y-80800000D03*
D13*
X32520000Y-80000000D03*
D12*
X32520000Y-80800000D03*
D18*
X29980000Y-80000000D03*
D14*
X29980000Y-80800000D03*
D19*
X30110000Y-68385000D03*
D20*
X33140000Y-68685000D03*
X33140000Y-73535000D03*
D19*
X30110000Y-73835000D03*
%TD*%
D21*
%TO.C,J1*%
X72225000Y-45940000D03*
X72225000Y-41980000D03*
X72225000Y-38020000D03*
D22*
X72225000Y-34060000D03*
%TD*%
D23*
%TO.C,REF\u002A\u002A*%
X24000000Y-86000000D03*
%TD*%
%TO.C,REF\u002A\u002A*%
X86000000Y-86000000D03*
%TD*%
%TO.C,REF\u002A\u002A*%
X86000000Y-24000000D03*
%TD*%
%TO.C,REF\u002A\u002A*%
X24000000Y-24000000D03*
%TD*%
D11*
%TO.C,SD1*%
X49000000Y-35000000D03*
X49000000Y-37540000D03*
X49000000Y-40080000D03*
X49000000Y-42620000D03*
X49000000Y-45160000D03*
X49000000Y-47700000D03*
X49000000Y-50240000D03*
X49000000Y-52780000D03*
X49000000Y-55320000D03*
%TD*%
D24*
%TO.C,SW1*%
X43750000Y-23750000D03*
X50250000Y-23750000D03*
X43750000Y-28250000D03*
X50250000Y-28250000D03*
%TD*%
M02*
