M48
; DRILL file {KiCad 9.0.8} date 2026-03-21T18:02:13-0400
; FORMAT={-:-/ absolute / metric / decimal}
; #@! TF.CreationDate,2026-03-21T18:02:13-04:00
; #@! TF.GenerationSoftware,Kicad,Pcbnew,9.0.8
; #@! TF.FileFunction,Plated,1,2,PTH
FMAT,2
METRIC
; #@! TA.AperFunction,Plated,PTH,ViaDrill
T1C0.300
; #@! TA.AperFunction,Plated,PTH,ComponentDrill
T2C1.000
; #@! TA.AperFunction,Plated,PTH,ComponentDrill
T3C1.100
; #@! TA.AperFunction,Plated,PTH,ComponentDrill
T4C1.700
%
G90
G05
T1
X29.98Y-83.98
X32.52Y-84.0
X34.0Y-58.0
X38.0Y-84.0
X40.0Y-29.0
X40.0Y-31.0
X40.14Y-84.0
X43.0Y-84.0
X45.0Y-84.0
X51.0Y-37.0
X51.0Y-51.0
X51.0Y-52.78
X54.0Y-40.0
X57.0Y-35.62
X57.84Y-54.0
X58.0Y-32.0
X58.0Y-46.0
X58.0Y-57.0
X60.0Y-54.0
X61.22Y-52.78
X62.0Y-23.0
X66.0Y-23.0
X66.0Y-40.0
X66.0Y-45.0
X68.0Y-44.0
X68.0Y-54.0
X68.0Y-56.0
X69.0Y-38.0
X69.0Y-69.0
X70.5Y-52.5
X73.0Y-57.0
X75.0Y-84.0
X75.0Y-85.0
X75.0Y-86.0
X76.0Y-87.0
X77.0Y-88.0
X78.2Y-89.2
X81.0Y-56.0
T2
X29.98Y-62.22
X29.98Y-80.0
X32.52Y-62.22
X32.52Y-80.0
X35.06Y-62.22
X35.06Y-80.0
X37.6Y-62.22
X37.6Y-80.0
X40.14Y-62.22
X40.14Y-80.0
X42.68Y-62.22
X42.68Y-80.0
X45.22Y-62.22
X45.22Y-80.0
X47.76Y-62.22
X47.76Y-80.0
X49.0Y-35.0
X49.0Y-37.54
X49.0Y-40.08
X49.0Y-42.62
X49.0Y-45.16
X49.0Y-47.7
X49.0Y-50.24
X49.0Y-52.78
X49.0Y-55.32
X50.3Y-62.22
X50.3Y-80.0
X52.84Y-62.22
X52.84Y-80.0
X55.38Y-62.22
X55.38Y-80.0
X57.92Y-62.22
X57.92Y-80.0
X60.46Y-62.22
X60.46Y-80.0
X61.46Y-28.0
X61.46Y-30.54
X61.46Y-33.08
X61.46Y-35.62
X61.46Y-38.16
X61.46Y-40.7
X61.46Y-43.24
X61.46Y-45.78
X63.0Y-62.22
X63.0Y-80.0
X64.0Y-28.0
X64.0Y-30.54
X64.0Y-33.08
X64.0Y-35.62
X64.0Y-38.16
X64.0Y-40.7
X64.0Y-43.24
X64.0Y-45.78
X65.54Y-62.22
X65.54Y-80.0
X68.08Y-62.22
X68.08Y-80.0
X70.62Y-62.22
X70.62Y-80.0
X73.16Y-62.22
X73.16Y-80.0
X75.7Y-62.22
X75.7Y-80.0
X78.24Y-62.22
X78.24Y-80.0
T3
X43.75Y-23.75
X43.75Y-28.25
X50.25Y-23.75
X50.25Y-28.25
T4
X72.225Y-34.06
X72.225Y-38.02
X72.225Y-41.98
X72.225Y-45.94
M30
