%TF.GenerationSoftware,KiCad,Pcbnew,9.0.8*%
%TF.CreationDate,2026-03-21T17:58:42-04:00*%
%TF.ProjectId,control_board_1,636f6e74-726f-46c5-9f62-6f6172645f31,1*%
%TF.SameCoordinates,Original*%
%TF.FileFunction,Legend,Bot*%
%TF.FilePolarity,Positive*%
%FSLAX46Y46*%
G04 Gerber Fmt 4.6, Leading zero omitted, Abs format (unit mm)*
G04 Created by KiCad (PCBNEW 9.0.8) date 2026-03-21 17:58:42*
%MOMM*%
%LPD*%
G01*
G04 APERTURE LIST*
%ADD10C,0.100000*%
%ADD11C,0.150000*%
%ADD12C,0.120000*%
G04 APERTURE END LIST*
D10*
X55000000Y-55000000D02*
X56100000Y-55000000D01*
X56500000Y-55000000D02*
X57600000Y-55000000D01*
X58000000Y-55000000D02*
X59100000Y-55000000D01*
X59500000Y-55000000D02*
X60600000Y-55000000D01*
X61000000Y-55000000D02*
X62100000Y-55000000D01*
X62500000Y-55000000D02*
X63600000Y-55000000D01*
X64000000Y-55000000D02*
X65100000Y-55000000D01*
X65500000Y-55000000D02*
X66600000Y-55000000D01*
X67000000Y-55000000D02*
X68100000Y-55000000D01*
X68500000Y-55000000D02*
X69600000Y-55000000D01*
X70000000Y-55000000D02*
X71100000Y-55000000D01*
X71500000Y-55000000D02*
X72600000Y-55000000D01*
X73000000Y-55000000D02*
X74100000Y-55000000D01*
X74500000Y-55000000D02*
X75600000Y-55000000D01*
X76000000Y-55000000D02*
X77100000Y-55000000D01*
X77500000Y-55000000D02*
X78600000Y-55000000D01*
X79000000Y-55000000D02*
X80100000Y-55000000D01*
X80500000Y-55000000D02*
X81600000Y-55000000D01*
X82000000Y-55000000D02*
X83100000Y-55000000D01*
X83500000Y-55000000D02*
X84600000Y-55000000D01*
X85000000Y-55000000D02*
X86100000Y-55000000D01*
X86500000Y-55000000D02*
X87600000Y-55000000D01*
X88000000Y-55000000D02*
X89100000Y-55000000D01*
X89500000Y-55000000D02*
X90000000Y-55000000D01*
X55000000Y-20000000D02*
X55000000Y-21100000D01*
X55000000Y-21500000D02*
X55000000Y-22600000D01*
X55000000Y-23000000D02*
X55000000Y-24100000D01*
X55000000Y-24500000D02*
X55000000Y-25600000D01*
X55000000Y-26000000D02*
X55000000Y-27100000D01*
X55000000Y-27500000D02*
X55000000Y-28600000D01*
X55000000Y-29000000D02*
X55000000Y-30100000D01*
X55000000Y-30500000D02*
X55000000Y-31600000D01*
X55000000Y-32000000D02*
X55000000Y-33100000D01*
X55000000Y-33500000D02*
X55000000Y-34600000D01*
X55000000Y-35000000D02*
X55000000Y-36100000D01*
X55000000Y-36500000D02*
X55000000Y-37600000D01*
X55000000Y-38000000D02*
X55000000Y-39100000D01*
X55000000Y-39500000D02*
X55000000Y-40600000D01*
X55000000Y-41000000D02*
X55000000Y-42100000D01*
X55000000Y-42500000D02*
X55000000Y-43600000D01*
X55000000Y-44000000D02*
X55000000Y-45100000D01*
X55000000Y-45500000D02*
X55000000Y-46600000D01*
X55000000Y-47000000D02*
X55000000Y-48100000D01*
X55000000Y-48500000D02*
X55000000Y-49600000D01*
X55000000Y-50000000D02*
X55000000Y-51100000D01*
X55000000Y-51500000D02*
X55000000Y-52600000D01*
X55000000Y-53000000D02*
X55000000Y-54100000D01*
X55000000Y-54500000D02*
X55000000Y-55000000D01*
X66392857Y-53688728D02*
X66392857Y-52188728D01*
X66392857Y-52903014D02*
X65535714Y-52903014D01*
X65535714Y-53688728D02*
X65535714Y-52188728D01*
X64821428Y-52188728D02*
X64821428Y-53403014D01*
X64821428Y-53403014D02*
X64749999Y-53545871D01*
X64749999Y-53545871D02*
X64678571Y-53617300D01*
X64678571Y-53617300D02*
X64535713Y-53688728D01*
X64535713Y-53688728D02*
X64249999Y-53688728D01*
X64249999Y-53688728D02*
X64107142Y-53617300D01*
X64107142Y-53617300D02*
X64035713Y-53545871D01*
X64035713Y-53545871D02*
X63964285Y-53403014D01*
X63964285Y-53403014D02*
X63964285Y-52188728D01*
X62749999Y-52903014D02*
X62535713Y-52974442D01*
X62535713Y-52974442D02*
X62464284Y-53045871D01*
X62464284Y-53045871D02*
X62392856Y-53188728D01*
X62392856Y-53188728D02*
X62392856Y-53403014D01*
X62392856Y-53403014D02*
X62464284Y-53545871D01*
X62464284Y-53545871D02*
X62535713Y-53617300D01*
X62535713Y-53617300D02*
X62678570Y-53688728D01*
X62678570Y-53688728D02*
X63249999Y-53688728D01*
X63249999Y-53688728D02*
X63249999Y-52188728D01*
X63249999Y-52188728D02*
X62749999Y-52188728D01*
X62749999Y-52188728D02*
X62607142Y-52260157D01*
X62607142Y-52260157D02*
X62535713Y-52331585D01*
X62535713Y-52331585D02*
X62464284Y-52474442D01*
X62464284Y-52474442D02*
X62464284Y-52617300D01*
X62464284Y-52617300D02*
X62535713Y-52760157D01*
X62535713Y-52760157D02*
X62607142Y-52831585D01*
X62607142Y-52831585D02*
X62749999Y-52903014D01*
X62749999Y-52903014D02*
X63249999Y-52903014D01*
X61892856Y-52188728D02*
X60892856Y-52188728D01*
X60892856Y-52188728D02*
X61535713Y-53688728D01*
X59607142Y-52188728D02*
X60321428Y-52188728D01*
X60321428Y-52188728D02*
X60392856Y-52903014D01*
X60392856Y-52903014D02*
X60321428Y-52831585D01*
X60321428Y-52831585D02*
X60178571Y-52760157D01*
X60178571Y-52760157D02*
X59821428Y-52760157D01*
X59821428Y-52760157D02*
X59678571Y-52831585D01*
X59678571Y-52831585D02*
X59607142Y-52903014D01*
X59607142Y-52903014D02*
X59535713Y-53045871D01*
X59535713Y-53045871D02*
X59535713Y-53403014D01*
X59535713Y-53403014D02*
X59607142Y-53545871D01*
X59607142Y-53545871D02*
X59678571Y-53617300D01*
X59678571Y-53617300D02*
X59821428Y-53688728D01*
X59821428Y-53688728D02*
X60178571Y-53688728D01*
X60178571Y-53688728D02*
X60321428Y-53617300D01*
X60321428Y-53617300D02*
X60392856Y-53545871D01*
X81688728Y-37035714D02*
X80188728Y-37035714D01*
X80188728Y-37035714D02*
X80188728Y-37607143D01*
X80188728Y-37607143D02*
X80260157Y-37750000D01*
X80260157Y-37750000D02*
X80331585Y-37821429D01*
X80331585Y-37821429D02*
X80474442Y-37892857D01*
X80474442Y-37892857D02*
X80688728Y-37892857D01*
X80688728Y-37892857D02*
X80831585Y-37821429D01*
X80831585Y-37821429D02*
X80903014Y-37750000D01*
X80903014Y-37750000D02*
X80974442Y-37607143D01*
X80974442Y-37607143D02*
X80974442Y-37035714D01*
X81688728Y-38750000D02*
X81617300Y-38607143D01*
X81617300Y-38607143D02*
X81545871Y-38535714D01*
X81545871Y-38535714D02*
X81403014Y-38464286D01*
X81403014Y-38464286D02*
X80974442Y-38464286D01*
X80974442Y-38464286D02*
X80831585Y-38535714D01*
X80831585Y-38535714D02*
X80760157Y-38607143D01*
X80760157Y-38607143D02*
X80688728Y-38750000D01*
X80688728Y-38750000D02*
X80688728Y-38964286D01*
X80688728Y-38964286D02*
X80760157Y-39107143D01*
X80760157Y-39107143D02*
X80831585Y-39178572D01*
X80831585Y-39178572D02*
X80974442Y-39250000D01*
X80974442Y-39250000D02*
X81403014Y-39250000D01*
X81403014Y-39250000D02*
X81545871Y-39178572D01*
X81545871Y-39178572D02*
X81617300Y-39107143D01*
X81617300Y-39107143D02*
X81688728Y-38964286D01*
X81688728Y-38964286D02*
X81688728Y-38750000D01*
X80688728Y-39750000D02*
X81688728Y-40035715D01*
X81688728Y-40035715D02*
X80974442Y-40321429D01*
X80974442Y-40321429D02*
X81688728Y-40607143D01*
X81688728Y-40607143D02*
X80688728Y-40892857D01*
X81617300Y-42035715D02*
X81688728Y-41892858D01*
X81688728Y-41892858D02*
X81688728Y-41607144D01*
X81688728Y-41607144D02*
X81617300Y-41464286D01*
X81617300Y-41464286D02*
X81474442Y-41392858D01*
X81474442Y-41392858D02*
X80903014Y-41392858D01*
X80903014Y-41392858D02*
X80760157Y-41464286D01*
X80760157Y-41464286D02*
X80688728Y-41607144D01*
X80688728Y-41607144D02*
X80688728Y-41892858D01*
X80688728Y-41892858D02*
X80760157Y-42035715D01*
X80760157Y-42035715D02*
X80903014Y-42107144D01*
X80903014Y-42107144D02*
X81045871Y-42107144D01*
X81045871Y-42107144D02*
X81188728Y-41392858D01*
X81688728Y-42750000D02*
X80688728Y-42750000D01*
X80974442Y-42750000D02*
X80831585Y-42821429D01*
X80831585Y-42821429D02*
X80760157Y-42892858D01*
X80760157Y-42892858D02*
X80688728Y-43035715D01*
X80688728Y-43035715D02*
X80688728Y-43178572D01*
D11*
X61761904Y-49454819D02*
X61761904Y-48454819D01*
X61761904Y-48931009D02*
X61190476Y-48931009D01*
X61190476Y-49454819D02*
X61190476Y-48454819D01*
X60761904Y-48550057D02*
X60714285Y-48502438D01*
X60714285Y-48502438D02*
X60619047Y-48454819D01*
X60619047Y-48454819D02*
X60380952Y-48454819D01*
X60380952Y-48454819D02*
X60285714Y-48502438D01*
X60285714Y-48502438D02*
X60238095Y-48550057D01*
X60238095Y-48550057D02*
X60190476Y-48645295D01*
X60190476Y-48645295D02*
X60190476Y-48740533D01*
X60190476Y-48740533D02*
X60238095Y-48883390D01*
X60238095Y-48883390D02*
X60809523Y-49454819D01*
X60809523Y-49454819D02*
X60190476Y-49454819D01*
X69129819Y-39666666D02*
X69844104Y-39666666D01*
X69844104Y-39666666D02*
X69986961Y-39619047D01*
X69986961Y-39619047D02*
X70082200Y-39523809D01*
X70082200Y-39523809D02*
X70129819Y-39380952D01*
X70129819Y-39380952D02*
X70129819Y-39285714D01*
X70129819Y-40666666D02*
X70129819Y-40095238D01*
X70129819Y-40380952D02*
X69129819Y-40380952D01*
X69129819Y-40380952D02*
X69272676Y-40285714D01*
X69272676Y-40285714D02*
X69367914Y-40190476D01*
X69367914Y-40190476D02*
X69415533Y-40095238D01*
D12*
%TO.C,H2*%
X68680000Y-27500000D02*
X68680000Y-28500000D01*
X68680000Y-28500000D02*
X67680000Y-28000000D01*
X67680000Y-28000000D02*
X68680000Y-27500000D01*
X67290000Y-22790000D02*
X58170000Y-22790000D01*
X67290000Y-34840000D02*
X65980000Y-34840000D01*
X67290000Y-50990000D02*
X67290000Y-22790000D01*
X65980000Y-24090000D02*
X59480000Y-24090000D01*
X65980000Y-34840000D02*
X65980000Y-24090000D01*
X65980000Y-38940000D02*
X67290000Y-38940000D01*
X65980000Y-49690000D02*
X65980000Y-38940000D01*
X59480000Y-24090000D02*
X59480000Y-49690000D01*
X59480000Y-49690000D02*
X65980000Y-49690000D01*
X58170000Y-22790000D02*
X58170000Y-50990000D01*
X58170000Y-50990000D02*
X67290000Y-50990000D01*
%TO.C,J1*%
X79535000Y-48000000D02*
X79535000Y-46950000D01*
X76115000Y-48000000D02*
X79535000Y-48000000D01*
X85735000Y-46950000D02*
X85735000Y-33050000D01*
X79535000Y-46950000D02*
X85735000Y-46950000D01*
X87235000Y-46760000D02*
X85735000Y-46760000D01*
X87235000Y-45120000D02*
X87235000Y-46760000D01*
X85735000Y-45120000D02*
X87235000Y-45120000D01*
X87235000Y-42800000D02*
X85735000Y-42800000D01*
X87235000Y-41160000D02*
X87235000Y-42800000D01*
X85735000Y-41160000D02*
X87235000Y-41160000D01*
X87235000Y-38840000D02*
X85735000Y-38840000D01*
X87235000Y-37200000D02*
X87235000Y-38840000D01*
X85735000Y-37200000D02*
X87235000Y-37200000D01*
X87235000Y-34880000D02*
X85735000Y-34880000D01*
X70615000Y-34060000D02*
X70615000Y-32450000D01*
X87235000Y-33240000D02*
X87235000Y-34880000D01*
X85735000Y-33240000D02*
X87235000Y-33240000D01*
X85735000Y-33050000D02*
X79535000Y-33050000D01*
X79535000Y-33050000D02*
X79535000Y-32000000D01*
X70615000Y-32450000D02*
X72225000Y-32450000D01*
X79535000Y-32000000D02*
X76115000Y-32000000D01*
X76115000Y-32000000D02*
X76115000Y-48000000D01*
%TD*%
M02*
