%TF.GenerationSoftware,KiCad,Pcbnew,9.0.8*%
%TF.CreationDate,2026-03-21T17:58:42-04:00*%
%TF.ProjectId,control_board_1,636f6e74-726f-46c5-9f62-6f6172645f31,1*%
%TF.SameCoordinates,Original*%
%TF.FileFunction,Copper,L2,Bot*%
%TF.FilePolarity,Positive*%
%FSLAX46Y46*%
G04 Gerber Fmt 4.6, Leading zero omitted, Abs format (unit mm)*
G04 Created by KiCad (PCBNEW 9.0.8) date 2026-03-21 17:58:42*
%MOMM*%
%LPD*%
G01*
G04 APERTURE LIST*
G04 Aperture macros list*
%AMRoundRect*
0 Rectangle with rounded corners*
0 $1 Rounding radius*
0 $2 $3 $4 $5 $6 $7 $8 $9 X,Y pos of 4 corners*
0 Add a 4 corners polygon primitive as box body*
4,1,4,$2,$3,$4,$5,$6,$7,$8,$9,$2,$3,0*
0 Add four circle primitives for the rounded corners*
1,1,$1+$1,$2,$3*
1,1,$1+$1,$4,$5*
1,1,$1+$1,$6,$7*
1,1,$1+$1,$8,$9*
0 Add four rect primitives between the rounded corners*
20,1,$1+$1,$2,$3,$4,$5,0*
20,1,$1+$1,$4,$5,$6,$7,0*
20,1,$1+$1,$6,$7,$8,$9,0*
20,1,$1+$1,$8,$9,$2,$3,0*%
%AMFreePoly0*
4,1,37,0.000000,0.796148,0.078414,0.796148,0.232228,0.765552,0.377117,0.705537,0.507515,0.618408,0.618408,0.507515,0.705537,0.377117,0.765552,0.232228,0.796148,0.078414,0.796148,-0.078414,0.765552,-0.232228,0.705537,-0.377117,0.618408,-0.507515,0.507515,-0.618408,0.377117,-0.705537,0.232228,-0.765552,0.078414,-0.796148,0.000000,-0.796148,0.000000,-0.800000,-0.600000,-0.800000,
-0.603843,-0.796157,-0.639018,-0.796157,-0.711114,-0.766294,-0.766294,-0.711114,-0.796157,-0.639018,-0.796157,-0.603843,-0.800000,-0.600000,-0.800000,0.600000,-0.796157,0.603843,-0.796157,0.639018,-0.766294,0.711114,-0.711114,0.766294,-0.639018,0.796157,-0.603843,0.796157,-0.600000,0.800000,0.000000,0.800000,0.000000,0.796148,0.000000,0.796148,$1*%
%AMFreePoly1*
4,1,37,0.603843,0.796157,0.639018,0.796157,0.711114,0.766294,0.766294,0.711114,0.796157,0.639018,0.796157,0.603843,0.800000,0.600000,0.800000,-0.600000,0.796157,-0.603843,0.796157,-0.639018,0.766294,-0.711114,0.711114,-0.766294,0.639018,-0.796157,0.603843,-0.796157,0.600000,-0.800000,0.000000,-0.800000,0.000000,-0.796148,-0.078414,-0.796148,-0.232228,-0.765552,-0.377117,-0.705537,
-0.507515,-0.618408,-0.618408,-0.507515,-0.705537,-0.377117,-0.765552,-0.232228,-0.796148,-0.078414,-0.796148,0.078414,-0.765552,0.232228,-0.705537,0.377117,-0.618408,0.507515,-0.507515,0.618408,-0.377117,0.705537,-0.232228,0.765552,-0.078414,0.796148,0.000000,0.796148,0.000000,0.800000,0.600000,0.800000,0.603843,0.796157,0.603843,0.796157,$1*%
G04 Aperture macros list end*
%TA.AperFunction,ComponentPad*%
%ADD10RoundRect,0.250000X0.600000X0.600000X-0.600000X0.600000X-0.600000X-0.600000X0.600000X-0.600000X0*%
%TD*%
%TA.AperFunction,ComponentPad*%
%ADD11C,1.700000*%
%TD*%
%TA.AperFunction,ComponentPad*%
%ADD12C,1.600000*%
%TD*%
%TA.AperFunction,ComponentPad*%
%ADD13FreePoly0,90.000000*%
%TD*%
%TA.AperFunction,ComponentPad*%
%ADD14FreePoly1,90.000000*%
%TD*%
%TA.AperFunction,ComponentPad*%
%ADD15RoundRect,0.200000X0.600000X-0.600000X0.600000X0.600000X-0.600000X0.600000X-0.600000X-0.600000X0*%
%TD*%
%TA.AperFunction,ComponentPad*%
%ADD16C,2.700000*%
%TD*%
%TA.AperFunction,ComponentPad*%
%ADD17RoundRect,0.250001X-1.099999X1.099999X-1.099999X-1.099999X1.099999X-1.099999X1.099999X1.099999X0*%
%TD*%
%TA.AperFunction,ComponentPad*%
%ADD18C,2.000000*%
%TD*%
%TA.AperFunction,ViaPad*%
%ADD19C,0.600000*%
%TD*%
%TA.AperFunction,Conductor*%
%ADD20C,0.200000*%
%TD*%
%TA.AperFunction,Conductor*%
%ADD21C,0.670000*%
%TD*%
G04 APERTURE END LIST*
D10*
%TO.P,H2,1,R0*%
%TO.N,R0*%
X64000000Y-28000000D03*
D11*
%TO.P,H2,2,G0*%
%TO.N,G0*%
X61460000Y-28000000D03*
%TO.P,H2,3,B0*%
%TO.N,B0*%
X64000000Y-30540000D03*
%TO.P,H2,4,GND*%
%TO.N,GND*%
X61460000Y-30540000D03*
%TO.P,H2,5,R1*%
%TO.N,R1*%
X64000000Y-33080000D03*
%TO.P,H2,6,G1*%
%TO.N,G1*%
X61460000Y-33080000D03*
%TO.P,H2,7,B1*%
%TO.N,B1*%
X64000000Y-35620000D03*
%TO.P,H2,8,E*%
%TO.N,E*%
X61460000Y-35620000D03*
%TO.P,H2,9,A*%
%TO.N,A*%
X64000000Y-38160000D03*
%TO.P,H2,10,B*%
%TO.N,B*%
X61460000Y-38160000D03*
%TO.P,H2,11,C*%
%TO.N,C*%
X64000000Y-40700000D03*
%TO.P,H2,12,D*%
%TO.N,D*%
X61460000Y-40700000D03*
%TO.P,H2,13,CLK*%
%TO.N,CLK*%
X64000000Y-43240000D03*
%TO.P,H2,14,OEN*%
%TO.N,LATCH*%
X61460000Y-43240000D03*
%TO.P,H2,15,OEN*%
%TO.N,OEN*%
X64000000Y-45780000D03*
%TO.P,H2,16,GND*%
%TO.N,GND*%
X61460000Y-45780000D03*
%TD*%
D12*
%TO.P,A1,40,VBUS*%
%TO.N,unconnected-(A1-VBUS-Pad40)_1*%
X29980000Y-62220000D03*
%TO.P,A1,39,VSYS*%
%TO.N,5V*%
X32520000Y-62220000D03*
D13*
%TO.P,A1,38,GND*%
%TO.N,GND*%
X35060000Y-62220000D03*
D12*
%TO.P,A1,37,3V3_EN*%
%TO.N,unconnected-(A1-3V3_EN-Pad37)_1*%
X37600000Y-62220000D03*
%TO.P,A1,36,3V3*%
%TO.N,3V3*%
X40140000Y-62220000D03*
%TO.P,A1,35,ADC_VREF*%
%TO.N,unconnected-(A1-ADC_VREF-Pad35)*%
X42680000Y-62220000D03*
%TO.P,A1,34,GPIO28_ADC2*%
%TO.N,unconnected-(A1-GPIO28_ADC2-Pad34)*%
X45220000Y-62220000D03*
D13*
%TO.P,A1,33,AGND*%
%TO.N,unconnected-(A1-AGND-Pad33)*%
X47760000Y-62220000D03*
D12*
%TO.P,A1,32,GPIO27_ADC1*%
%TO.N,unconnected-(A1-GPIO27_ADC1-Pad32)_1*%
X50300000Y-62220000D03*
%TO.P,A1,31,GPIO26_ADC0*%
%TO.N,unconnected-(A1-GPIO26_ADC0-Pad31)_1*%
X52840000Y-62220000D03*
%TO.P,A1,30,RUN*%
%TO.N,unconnected-(A1-RUN-Pad30)*%
X55380000Y-62220000D03*
%TO.P,A1,29,GPIO22*%
%TO.N,unconnected-(A1-GPIO22-Pad29)_1*%
X57920000Y-62220000D03*
D13*
%TO.P,A1,28,GND*%
%TO.N,GND*%
X60460000Y-62220000D03*
D12*
%TO.P,A1,27,GPIO21*%
%TO.N,unconnected-(A1-GPIO21-Pad27)_1*%
X63000000Y-62220000D03*
%TO.P,A1,26,GPIO20*%
%TO.N,CD*%
X65540000Y-62220000D03*
%TO.P,A1,25,GPIO19*%
%TO.N,MOSI*%
X68080000Y-62220000D03*
%TO.P,A1,24,GPIO18*%
%TO.N,SCLK*%
X70620000Y-62220000D03*
D13*
%TO.P,A1,23,GND*%
%TO.N,GND*%
X73160000Y-62220000D03*
D12*
%TO.P,A1,22,GPIO17*%
%TO.N,CS*%
X75700000Y-62220000D03*
%TO.P,A1,21,GPIO16*%
%TO.N,MISO*%
X78240000Y-62220000D03*
%TO.P,A1,20,GPIO15*%
%TO.N,unconnected-(A1-GPIO15-Pad20)*%
X78240000Y-80000000D03*
%TO.P,A1,19,GPIO14*%
%TO.N,MODESEL*%
X75700000Y-80000000D03*
D14*
%TO.P,A1,18,GND*%
%TO.N,GND*%
X73160000Y-80000000D03*
D12*
%TO.P,A1,17,GPIO13*%
%TO.N,OEN*%
X70620000Y-80000000D03*
%TO.P,A1,16,GPIO12*%
%TO.N,LATCH*%
X68080000Y-80000000D03*
%TO.P,A1,15,GPIO11*%
%TO.N,CLK*%
X65540000Y-80000000D03*
%TO.P,A1,14,GPIO10*%
%TO.N,E*%
X63000000Y-80000000D03*
D14*
%TO.P,A1,13,GND*%
%TO.N,GND*%
X60460000Y-80000000D03*
D12*
%TO.P,A1,12,GPIO9*%
%TO.N,D*%
X57920000Y-80000000D03*
%TO.P,A1,11,GPIO8*%
%TO.N,C*%
X55380000Y-80000000D03*
%TO.P,A1,10,GPIO7*%
%TO.N,B*%
X52840000Y-80000000D03*
%TO.P,A1,9,GPIO6*%
%TO.N,A*%
X50300000Y-80000000D03*
D14*
%TO.P,A1,8,GND*%
%TO.N,GND*%
X47760000Y-80000000D03*
D12*
%TO.P,A1,7,GPIO5*%
%TO.N,B1*%
X45220000Y-80000000D03*
%TO.P,A1,6,GPIO4*%
%TO.N,G1*%
X42680000Y-80000000D03*
%TO.P,A1,5,GPIO3*%
%TO.N,R1*%
X40140000Y-80000000D03*
%TO.P,A1,4,GPIO2*%
%TO.N,B0*%
X37600000Y-80000000D03*
D14*
%TO.P,A1,3,GND*%
%TO.N,GND*%
X35060000Y-80000000D03*
D12*
%TO.P,A1,2,GPIO1*%
%TO.N,G0*%
X32520000Y-80000000D03*
D15*
%TO.P,A1,1,GPIO0*%
%TO.N,R0*%
X29980000Y-80000000D03*
%TD*%
D16*
%TO.P,J1,4,GND*%
%TO.N,GND*%
X72225000Y-45940000D03*
%TO.P,J1,3,GND*%
X72225000Y-41980000D03*
%TO.P,J1,2,VIN*%
%TO.N,5V*%
X72225000Y-38020000D03*
D17*
%TO.P,J1,1,VIN*%
X72225000Y-34060000D03*
%TD*%
D11*
%TO.P,SD1,9,CD*%
%TO.N,CD*%
X49000000Y-35000000D03*
%TO.P,SD1,8,x*%
%TO.N,unconnected-(SD1-x-Pad8)*%
X49000000Y-37540000D03*
%TO.P,SD1,7,x*%
%TO.N,unconnected-(SD1-x-Pad7)*%
X49000000Y-40080000D03*
%TO.P,SD1,6,CS*%
%TO.N,CS*%
X49000000Y-42620000D03*
%TO.P,SD1,5,MOSI*%
%TO.N,MOSI*%
X49000000Y-45160000D03*
%TO.P,SD1,4,MISO*%
%TO.N,MISO*%
X49000000Y-47700000D03*
%TO.P,SD1,3,CLK*%
%TO.N,SCLK*%
X49000000Y-50240000D03*
%TO.P,SD1,2,GND*%
%TO.N,GND*%
X49000000Y-52780000D03*
%TO.P,SD1,1,3V*%
%TO.N,3V3*%
X49000000Y-55320000D03*
%TD*%
D18*
%TO.P,SW1,1,1*%
%TO.N,MODESEL*%
X43750000Y-23750000D03*
X50250000Y-23750000D03*
%TO.P,SW1,2,2*%
%TO.N,GND*%
X43750000Y-28250000D03*
X50250000Y-28250000D03*
%TD*%
D19*
%TO.N,OEN*%
X66000000Y-45000000D03*
X66000000Y-40000000D03*
%TO.N,LATCH*%
X69000000Y-69000000D03*
X81000000Y-56000000D03*
%TO.N,GND*%
X70500000Y-52500000D03*
%TO.N,CLK*%
X68000000Y-54000000D03*
X68000000Y-44000000D03*
%TO.N,E*%
X57000000Y-35620000D03*
X54000000Y-40000000D03*
%TO.N,B*%
X40000000Y-31000000D03*
X40000000Y-29000000D03*
%TO.N,B1*%
X75000000Y-84000000D03*
X45000000Y-84000000D03*
%TO.N,G1*%
X75000000Y-85000000D03*
X43000000Y-84000000D03*
%TO.N,R0*%
X78200000Y-89200000D03*
%TO.N,G0*%
X77000000Y-88000000D03*
%TO.N,B0*%
X76000000Y-87000000D03*
%TO.N,R1*%
X75000000Y-86000000D03*
%TO.N,R0*%
X29980000Y-83980000D03*
%TO.N,G0*%
X32520000Y-84000000D03*
%TO.N,B0*%
X38000000Y-84000000D03*
%TO.N,R1*%
X40140000Y-84000000D03*
%TO.N,G0*%
X66000000Y-23000000D03*
X62000000Y-23000000D03*
%TO.N,CD*%
X51000000Y-51000000D03*
X51000000Y-37000000D03*
%TO.N,CS*%
X68000000Y-56000000D03*
X60000000Y-54000000D03*
%TO.N,MOSI*%
X58000000Y-57000000D03*
X57840000Y-54000000D03*
%TO.N,GND*%
X73000000Y-57000000D03*
X61220000Y-52780000D03*
X51000000Y-52780000D03*
X58000000Y-46000000D03*
X58000000Y-32000000D03*
%TO.N,5V*%
X69000000Y-38000000D03*
X34000000Y-58000000D03*
%TD*%
D20*
%TO.N,MODESEL*%
X43750000Y-23750000D02*
X50250000Y-23750000D01*
D21*
%TO.N,GND*%
X70971238Y-63675000D02*
X71705000Y-63675000D01*
X70000000Y-64646238D02*
X70971238Y-63675000D01*
X70000000Y-76000000D02*
X70000000Y-64646238D01*
X71705000Y-63675000D02*
X73160000Y-62220000D01*
X60460000Y-75460000D02*
X60460000Y-62220000D01*
X61000000Y-76000000D02*
X60460000Y-75460000D01*
X61000000Y-76000000D02*
X70000000Y-76000000D01*
X35060000Y-76940000D02*
X35060000Y-62220000D01*
X70971238Y-78545000D02*
X71705000Y-78545000D01*
X71705000Y-78545000D02*
X73160000Y-80000000D01*
X70000000Y-77573762D02*
X70971238Y-78545000D01*
X60000000Y-76000000D02*
X61000000Y-76000000D01*
X70000000Y-76000000D02*
X70000000Y-77573762D01*
X60460000Y-76460000D02*
X60460000Y-80000000D01*
X60000000Y-76000000D02*
X60460000Y-76460000D01*
X48000000Y-76000000D02*
X60000000Y-76000000D01*
X48000000Y-76000000D02*
X48000000Y-78000000D01*
X36000000Y-76000000D02*
X48000000Y-76000000D01*
X35060000Y-76940000D02*
X36000000Y-76000000D01*
X35060000Y-80000000D02*
X35060000Y-76940000D01*
X48000000Y-78000000D02*
X47760000Y-78240000D01*
X47760000Y-78240000D02*
X47760000Y-80000000D01*
D20*
%TO.N,MODESEL*%
X39750000Y-23750000D02*
X43750000Y-23750000D01*
X34000000Y-24000000D02*
X39500000Y-24000000D01*
X39500000Y-24000000D02*
X39750000Y-23750000D01*
X25000000Y-33000000D02*
X34000000Y-24000000D01*
X25000000Y-80000000D02*
X25000000Y-33000000D01*
X28000000Y-83000000D02*
X25000000Y-80000000D01*
X72700000Y-83000000D02*
X28000000Y-83000000D01*
X75700000Y-80000000D02*
X72700000Y-83000000D01*
%TO.N,OEN*%
X66000000Y-40000000D02*
X66000000Y-45000000D01*
%TO.N,LATCH*%
X71000000Y-58000000D02*
X79000000Y-58000000D01*
X79000000Y-58000000D02*
X81000000Y-56000000D01*
X69180000Y-59820000D02*
X71000000Y-58000000D01*
X69180000Y-65180000D02*
X69180000Y-59820000D01*
X69000000Y-65360000D02*
X69180000Y-65180000D01*
X69000000Y-69000000D02*
X69000000Y-65360000D01*
D21*
%TO.N,GND*%
X73000000Y-55000000D02*
X73000000Y-57000000D01*
X70500000Y-52500000D02*
X73000000Y-55000000D01*
D20*
%TO.N,CLK*%
X68000000Y-44000000D02*
X68000000Y-54000000D01*
%TO.N,E*%
X57000000Y-37000000D02*
X54000000Y-40000000D01*
X57000000Y-35620000D02*
X57000000Y-37000000D01*
D21*
%TO.N,GND*%
X58000000Y-32000000D02*
X58000000Y-46000000D01*
D20*
%TO.N,CD*%
X51000000Y-37000000D02*
X53000000Y-39000000D01*
X53000000Y-49000000D02*
X51000000Y-51000000D01*
X53000000Y-39000000D02*
X53000000Y-49000000D01*
%TO.N,B*%
X40000000Y-31000000D02*
X40000000Y-29000000D01*
%TO.N,G0*%
X66000000Y-23000000D02*
X62000000Y-23000000D01*
%TO.N,G1*%
X44000000Y-85000000D02*
X75000000Y-85000000D01*
X43000000Y-84000000D02*
X44000000Y-85000000D01*
%TO.N,B1*%
X45000000Y-84000000D02*
X75000000Y-84000000D01*
%TO.N,G0*%
X36520000Y-88000000D02*
X77000000Y-88000000D01*
X32520000Y-84000000D02*
X36520000Y-88000000D01*
%TO.N,R1*%
X42140000Y-86000000D02*
X75000000Y-86000000D01*
X40140000Y-84000000D02*
X42140000Y-86000000D01*
%TO.N,R0*%
X35200000Y-89200000D02*
X78200000Y-89200000D01*
X29980000Y-83980000D02*
X35200000Y-89200000D01*
%TO.N,B0*%
X41000000Y-87000000D02*
X76000000Y-87000000D01*
X38000000Y-84000000D02*
X41000000Y-87000000D01*
%TO.N,CS*%
X66000000Y-54000000D02*
X68000000Y-56000000D01*
X60000000Y-54000000D02*
X66000000Y-54000000D01*
%TO.N,MOSI*%
X57840000Y-56840000D02*
X58000000Y-57000000D01*
X57840000Y-54000000D02*
X57840000Y-56840000D01*
D21*
%TO.N,GND*%
X61220000Y-52780000D02*
X51000000Y-52780000D01*
%TO.N,5V*%
X69000000Y-38000000D02*
X69000000Y-58000000D01*
X69000000Y-58000000D02*
X34000000Y-58000000D01*
%TD*%
M02*
