%TF.GenerationSoftware,KiCad,Pcbnew,9.0.8*%
%TF.CreationDate,2026-03-21T17:58:42-04:00*%
%TF.ProjectId,control_board_1,636f6e74-726f-46c5-9f62-6f6172645f31,1*%
%TF.SameCoordinates,Original*%
%TF.FileFunction,Legend,Top*%
%TF.FilePolarity,Positive*%
%FSLAX46Y46*%
G04 Gerber Fmt 4.6, Leading zero omitted, Abs format (unit mm)*
G04 Created by KiCad (PCBNEW 9.0.8) date 2026-03-21 17:58:42*
%MOMM*%
%LPD*%
G01*
G04 APERTURE LIST*
%ADD10C,0.100000*%
%ADD11C,0.150000*%
%ADD12C,0.120000*%
G04 APERTURE END LIST*
D10*
X90000000Y-55000000D02*
X88900000Y-55000000D01*
X88500000Y-55000000D02*
X87400000Y-55000000D01*
X87000000Y-55000000D02*
X85900000Y-55000000D01*
X85500000Y-55000000D02*
X84400000Y-55000000D01*
X84000000Y-55000000D02*
X82900000Y-55000000D01*
X82500000Y-55000000D02*
X81400000Y-55000000D01*
X81000000Y-55000000D02*
X79900000Y-55000000D01*
X79500000Y-55000000D02*
X78400000Y-55000000D01*
X78000000Y-55000000D02*
X76900000Y-55000000D01*
X76500000Y-55000000D02*
X75400000Y-55000000D01*
X75000000Y-55000000D02*
X73900000Y-55000000D01*
X73500000Y-55000000D02*
X72400000Y-55000000D01*
X72000000Y-55000000D02*
X70900000Y-55000000D01*
X70500000Y-55000000D02*
X69400000Y-55000000D01*
X69000000Y-55000000D02*
X67900000Y-55000000D01*
X67500000Y-55000000D02*
X66400000Y-55000000D01*
X66000000Y-55000000D02*
X64900000Y-55000000D01*
X64500000Y-55000000D02*
X63400000Y-55000000D01*
X63000000Y-55000000D02*
X61900000Y-55000000D01*
X61500000Y-55000000D02*
X60400000Y-55000000D01*
X60000000Y-55000000D02*
X58900000Y-55000000D01*
X58500000Y-55000000D02*
X57400000Y-55000000D01*
X57000000Y-55000000D02*
X55900000Y-55000000D01*
X55500000Y-55000000D02*
X55000000Y-55000000D01*
X55000000Y-20000000D02*
X55000000Y-21100000D01*
X55000000Y-21500000D02*
X55000000Y-22600000D01*
X55000000Y-23000000D02*
X55000000Y-24100000D01*
X55000000Y-24500000D02*
X55000000Y-25600000D01*
X55000000Y-26000000D02*
X55000000Y-27100000D01*
X55000000Y-27500000D02*
X55000000Y-28600000D01*
X55000000Y-29000000D02*
X55000000Y-30100000D01*
X55000000Y-30500000D02*
X55000000Y-31600000D01*
X55000000Y-32000000D02*
X55000000Y-33100000D01*
X55000000Y-33500000D02*
X55000000Y-34600000D01*
X55000000Y-35000000D02*
X55000000Y-36100000D01*
X55000000Y-36500000D02*
X55000000Y-37600000D01*
X55000000Y-38000000D02*
X55000000Y-39100000D01*
X55000000Y-39500000D02*
X55000000Y-40600000D01*
X55000000Y-41000000D02*
X55000000Y-42100000D01*
X55000000Y-42500000D02*
X55000000Y-43600000D01*
X55000000Y-44000000D02*
X55000000Y-45100000D01*
X55000000Y-45500000D02*
X55000000Y-46600000D01*
X55000000Y-47000000D02*
X55000000Y-48100000D01*
X55000000Y-48500000D02*
X55000000Y-49600000D01*
X55000000Y-50000000D02*
X55000000Y-51100000D01*
X55000000Y-51500000D02*
X55000000Y-52600000D01*
X55000000Y-53000000D02*
X55000000Y-54100000D01*
X55000000Y-54500000D02*
X55000000Y-55000000D01*
X80172305Y-50042419D02*
X80362781Y-50042419D01*
X80362781Y-50042419D02*
X80458019Y-50090038D01*
X80458019Y-50090038D02*
X80553257Y-50185276D01*
X80553257Y-50185276D02*
X80600876Y-50375752D01*
X80600876Y-50375752D02*
X80600876Y-50709085D01*
X80600876Y-50709085D02*
X80553257Y-50899561D01*
X80553257Y-50899561D02*
X80458019Y-50994800D01*
X80458019Y-50994800D02*
X80362781Y-51042419D01*
X80362781Y-51042419D02*
X80172305Y-51042419D01*
X80172305Y-51042419D02*
X80077067Y-50994800D01*
X80077067Y-50994800D02*
X79981829Y-50899561D01*
X79981829Y-50899561D02*
X79934210Y-50709085D01*
X79934210Y-50709085D02*
X79934210Y-50375752D01*
X79934210Y-50375752D02*
X79981829Y-50185276D01*
X79981829Y-50185276D02*
X80077067Y-50090038D01*
X80077067Y-50090038D02*
X80172305Y-50042419D01*
X80934210Y-50375752D02*
X81172305Y-51042419D01*
X81172305Y-51042419D02*
X81410400Y-50375752D01*
X82172305Y-50994800D02*
X82077067Y-51042419D01*
X82077067Y-51042419D02*
X81886591Y-51042419D01*
X81886591Y-51042419D02*
X81791353Y-50994800D01*
X81791353Y-50994800D02*
X81743734Y-50899561D01*
X81743734Y-50899561D02*
X81743734Y-50518609D01*
X81743734Y-50518609D02*
X81791353Y-50423371D01*
X81791353Y-50423371D02*
X81886591Y-50375752D01*
X81886591Y-50375752D02*
X82077067Y-50375752D01*
X82077067Y-50375752D02*
X82172305Y-50423371D01*
X82172305Y-50423371D02*
X82219924Y-50518609D01*
X82219924Y-50518609D02*
X82219924Y-50613847D01*
X82219924Y-50613847D02*
X81743734Y-50709085D01*
X82648496Y-51042419D02*
X82648496Y-50375752D01*
X82648496Y-50566228D02*
X82696115Y-50470990D01*
X82696115Y-50470990D02*
X82743734Y-50423371D01*
X82743734Y-50423371D02*
X82838972Y-50375752D01*
X82838972Y-50375752D02*
X82934210Y-50375752D01*
X83267544Y-51042419D02*
X83267544Y-50042419D01*
X83267544Y-50423371D02*
X83362782Y-50375752D01*
X83362782Y-50375752D02*
X83553258Y-50375752D01*
X83553258Y-50375752D02*
X83648496Y-50423371D01*
X83648496Y-50423371D02*
X83696115Y-50470990D01*
X83696115Y-50470990D02*
X83743734Y-50566228D01*
X83743734Y-50566228D02*
X83743734Y-50851942D01*
X83743734Y-50851942D02*
X83696115Y-50947180D01*
X83696115Y-50947180D02*
X83648496Y-50994800D01*
X83648496Y-50994800D02*
X83553258Y-51042419D01*
X83553258Y-51042419D02*
X83362782Y-51042419D01*
X83362782Y-51042419D02*
X83267544Y-50994800D01*
X84315163Y-51042419D02*
X84219925Y-50994800D01*
X84219925Y-50994800D02*
X84172306Y-50899561D01*
X84172306Y-50899561D02*
X84172306Y-50042419D01*
X84696116Y-51042419D02*
X84696116Y-50375752D01*
X84696116Y-50042419D02*
X84648497Y-50090038D01*
X84648497Y-50090038D02*
X84696116Y-50137657D01*
X84696116Y-50137657D02*
X84743735Y-50090038D01*
X84743735Y-50090038D02*
X84696116Y-50042419D01*
X84696116Y-50042419D02*
X84696116Y-50137657D01*
X85172306Y-50375752D02*
X85172306Y-51042419D01*
X85172306Y-50470990D02*
X85219925Y-50423371D01*
X85219925Y-50423371D02*
X85315163Y-50375752D01*
X85315163Y-50375752D02*
X85458020Y-50375752D01*
X85458020Y-50375752D02*
X85553258Y-50423371D01*
X85553258Y-50423371D02*
X85600877Y-50518609D01*
X85600877Y-50518609D02*
X85600877Y-51042419D01*
X86077068Y-51042419D02*
X86077068Y-50042419D01*
X86172306Y-50661466D02*
X86458020Y-51042419D01*
X86458020Y-50375752D02*
X86077068Y-50756704D01*
X86886592Y-51042419D02*
X86886592Y-50375752D01*
X86886592Y-50042419D02*
X86838973Y-50090038D01*
X86838973Y-50090038D02*
X86886592Y-50137657D01*
X86886592Y-50137657D02*
X86934211Y-50090038D01*
X86934211Y-50090038D02*
X86886592Y-50042419D01*
X86886592Y-50042419D02*
X86886592Y-50137657D01*
X87362782Y-50375752D02*
X87362782Y-51042419D01*
X87362782Y-50470990D02*
X87410401Y-50423371D01*
X87410401Y-50423371D02*
X87505639Y-50375752D01*
X87505639Y-50375752D02*
X87648496Y-50375752D01*
X87648496Y-50375752D02*
X87743734Y-50423371D01*
X87743734Y-50423371D02*
X87791353Y-50518609D01*
X87791353Y-50518609D02*
X87791353Y-51042419D01*
X88696115Y-50375752D02*
X88696115Y-51185276D01*
X88696115Y-51185276D02*
X88648496Y-51280514D01*
X88648496Y-51280514D02*
X88600877Y-51328133D01*
X88600877Y-51328133D02*
X88505639Y-51375752D01*
X88505639Y-51375752D02*
X88362782Y-51375752D01*
X88362782Y-51375752D02*
X88267544Y-51328133D01*
X88696115Y-50994800D02*
X88600877Y-51042419D01*
X88600877Y-51042419D02*
X88410401Y-51042419D01*
X88410401Y-51042419D02*
X88315163Y-50994800D01*
X88315163Y-50994800D02*
X88267544Y-50947180D01*
X88267544Y-50947180D02*
X88219925Y-50851942D01*
X88219925Y-50851942D02*
X88219925Y-50566228D01*
X88219925Y-50566228D02*
X88267544Y-50470990D01*
X88267544Y-50470990D02*
X88315163Y-50423371D01*
X88315163Y-50423371D02*
X88410401Y-50375752D01*
X88410401Y-50375752D02*
X88600877Y-50375752D01*
X88600877Y-50375752D02*
X88696115Y-50423371D01*
X67791349Y-52652363D02*
X67315159Y-52652363D01*
X67315159Y-52652363D02*
X67315159Y-51652363D01*
X68124683Y-52128553D02*
X68458016Y-52128553D01*
X68600873Y-52652363D02*
X68124683Y-52652363D01*
X68124683Y-52652363D02*
X68124683Y-51652363D01*
X68124683Y-51652363D02*
X68600873Y-51652363D01*
X69029445Y-52652363D02*
X69029445Y-51652363D01*
X69029445Y-51652363D02*
X69267540Y-51652363D01*
X69267540Y-51652363D02*
X69410397Y-51699982D01*
X69410397Y-51699982D02*
X69505635Y-51795220D01*
X69505635Y-51795220D02*
X69553254Y-51890458D01*
X69553254Y-51890458D02*
X69600873Y-52080934D01*
X69600873Y-52080934D02*
X69600873Y-52223791D01*
X69600873Y-52223791D02*
X69553254Y-52414267D01*
X69553254Y-52414267D02*
X69505635Y-52509505D01*
X69505635Y-52509505D02*
X69410397Y-52604744D01*
X69410397Y-52604744D02*
X69267540Y-52652363D01*
X69267540Y-52652363D02*
X69029445Y-52652363D01*
X70791350Y-52652363D02*
X70791350Y-51652363D01*
X70791350Y-51652363D02*
X71124683Y-52366648D01*
X71124683Y-52366648D02*
X71458016Y-51652363D01*
X71458016Y-51652363D02*
X71458016Y-52652363D01*
X72362778Y-52652363D02*
X72362778Y-52128553D01*
X72362778Y-52128553D02*
X72315159Y-52033315D01*
X72315159Y-52033315D02*
X72219921Y-51985696D01*
X72219921Y-51985696D02*
X72029445Y-51985696D01*
X72029445Y-51985696D02*
X71934207Y-52033315D01*
X72362778Y-52604744D02*
X72267540Y-52652363D01*
X72267540Y-52652363D02*
X72029445Y-52652363D01*
X72029445Y-52652363D02*
X71934207Y-52604744D01*
X71934207Y-52604744D02*
X71886588Y-52509505D01*
X71886588Y-52509505D02*
X71886588Y-52414267D01*
X71886588Y-52414267D02*
X71934207Y-52319029D01*
X71934207Y-52319029D02*
X72029445Y-52271410D01*
X72029445Y-52271410D02*
X72267540Y-52271410D01*
X72267540Y-52271410D02*
X72362778Y-52223791D01*
X72696112Y-51985696D02*
X73077064Y-51985696D01*
X72838969Y-51652363D02*
X72838969Y-52509505D01*
X72838969Y-52509505D02*
X72886588Y-52604744D01*
X72886588Y-52604744D02*
X72981826Y-52652363D01*
X72981826Y-52652363D02*
X73077064Y-52652363D01*
X73410398Y-52652363D02*
X73410398Y-51985696D01*
X73410398Y-52176172D02*
X73458017Y-52080934D01*
X73458017Y-52080934D02*
X73505636Y-52033315D01*
X73505636Y-52033315D02*
X73600874Y-51985696D01*
X73600874Y-51985696D02*
X73696112Y-51985696D01*
X74029446Y-52652363D02*
X74029446Y-51985696D01*
X74029446Y-51652363D02*
X73981827Y-51699982D01*
X73981827Y-51699982D02*
X74029446Y-51747601D01*
X74029446Y-51747601D02*
X74077065Y-51699982D01*
X74077065Y-51699982D02*
X74029446Y-51652363D01*
X74029446Y-51652363D02*
X74029446Y-51747601D01*
X74410398Y-52652363D02*
X74934207Y-51985696D01*
X74410398Y-51985696D02*
X74934207Y-52652363D01*
X76648493Y-52557124D02*
X76600874Y-52604744D01*
X76600874Y-52604744D02*
X76458017Y-52652363D01*
X76458017Y-52652363D02*
X76362779Y-52652363D01*
X76362779Y-52652363D02*
X76219922Y-52604744D01*
X76219922Y-52604744D02*
X76124684Y-52509505D01*
X76124684Y-52509505D02*
X76077065Y-52414267D01*
X76077065Y-52414267D02*
X76029446Y-52223791D01*
X76029446Y-52223791D02*
X76029446Y-52080934D01*
X76029446Y-52080934D02*
X76077065Y-51890458D01*
X76077065Y-51890458D02*
X76124684Y-51795220D01*
X76124684Y-51795220D02*
X76219922Y-51699982D01*
X76219922Y-51699982D02*
X76362779Y-51652363D01*
X76362779Y-51652363D02*
X76458017Y-51652363D01*
X76458017Y-51652363D02*
X76600874Y-51699982D01*
X76600874Y-51699982D02*
X76648493Y-51747601D01*
X77219922Y-52652363D02*
X77124684Y-52604744D01*
X77124684Y-52604744D02*
X77077065Y-52557124D01*
X77077065Y-52557124D02*
X77029446Y-52461886D01*
X77029446Y-52461886D02*
X77029446Y-52176172D01*
X77029446Y-52176172D02*
X77077065Y-52080934D01*
X77077065Y-52080934D02*
X77124684Y-52033315D01*
X77124684Y-52033315D02*
X77219922Y-51985696D01*
X77219922Y-51985696D02*
X77362779Y-51985696D01*
X77362779Y-51985696D02*
X77458017Y-52033315D01*
X77458017Y-52033315D02*
X77505636Y-52080934D01*
X77505636Y-52080934D02*
X77553255Y-52176172D01*
X77553255Y-52176172D02*
X77553255Y-52461886D01*
X77553255Y-52461886D02*
X77505636Y-52557124D01*
X77505636Y-52557124D02*
X77458017Y-52604744D01*
X77458017Y-52604744D02*
X77362779Y-52652363D01*
X77362779Y-52652363D02*
X77219922Y-52652363D01*
X77981827Y-51985696D02*
X77981827Y-52652363D01*
X77981827Y-52080934D02*
X78029446Y-52033315D01*
X78029446Y-52033315D02*
X78124684Y-51985696D01*
X78124684Y-51985696D02*
X78267541Y-51985696D01*
X78267541Y-51985696D02*
X78362779Y-52033315D01*
X78362779Y-52033315D02*
X78410398Y-52128553D01*
X78410398Y-52128553D02*
X78410398Y-52652363D01*
X78743732Y-51985696D02*
X79124684Y-51985696D01*
X78886589Y-51652363D02*
X78886589Y-52509505D01*
X78886589Y-52509505D02*
X78934208Y-52604744D01*
X78934208Y-52604744D02*
X79029446Y-52652363D01*
X79029446Y-52652363D02*
X79124684Y-52652363D01*
X79458018Y-52652363D02*
X79458018Y-51985696D01*
X79458018Y-52176172D02*
X79505637Y-52080934D01*
X79505637Y-52080934D02*
X79553256Y-52033315D01*
X79553256Y-52033315D02*
X79648494Y-51985696D01*
X79648494Y-51985696D02*
X79743732Y-51985696D01*
X80219923Y-52652363D02*
X80124685Y-52604744D01*
X80124685Y-52604744D02*
X80077066Y-52557124D01*
X80077066Y-52557124D02*
X80029447Y-52461886D01*
X80029447Y-52461886D02*
X80029447Y-52176172D01*
X80029447Y-52176172D02*
X80077066Y-52080934D01*
X80077066Y-52080934D02*
X80124685Y-52033315D01*
X80124685Y-52033315D02*
X80219923Y-51985696D01*
X80219923Y-51985696D02*
X80362780Y-51985696D01*
X80362780Y-51985696D02*
X80458018Y-52033315D01*
X80458018Y-52033315D02*
X80505637Y-52080934D01*
X80505637Y-52080934D02*
X80553256Y-52176172D01*
X80553256Y-52176172D02*
X80553256Y-52461886D01*
X80553256Y-52461886D02*
X80505637Y-52557124D01*
X80505637Y-52557124D02*
X80458018Y-52604744D01*
X80458018Y-52604744D02*
X80362780Y-52652363D01*
X80362780Y-52652363D02*
X80219923Y-52652363D01*
X81124685Y-52652363D02*
X81029447Y-52604744D01*
X81029447Y-52604744D02*
X80981828Y-52509505D01*
X80981828Y-52509505D02*
X80981828Y-51652363D01*
X82600876Y-52128553D02*
X82743733Y-52176172D01*
X82743733Y-52176172D02*
X82791352Y-52223791D01*
X82791352Y-52223791D02*
X82838971Y-52319029D01*
X82838971Y-52319029D02*
X82838971Y-52461886D01*
X82838971Y-52461886D02*
X82791352Y-52557124D01*
X82791352Y-52557124D02*
X82743733Y-52604744D01*
X82743733Y-52604744D02*
X82648495Y-52652363D01*
X82648495Y-52652363D02*
X82267543Y-52652363D01*
X82267543Y-52652363D02*
X82267543Y-51652363D01*
X82267543Y-51652363D02*
X82600876Y-51652363D01*
X82600876Y-51652363D02*
X82696114Y-51699982D01*
X82696114Y-51699982D02*
X82743733Y-51747601D01*
X82743733Y-51747601D02*
X82791352Y-51842839D01*
X82791352Y-51842839D02*
X82791352Y-51938077D01*
X82791352Y-51938077D02*
X82743733Y-52033315D01*
X82743733Y-52033315D02*
X82696114Y-52080934D01*
X82696114Y-52080934D02*
X82600876Y-52128553D01*
X82600876Y-52128553D02*
X82267543Y-52128553D01*
X83410400Y-52652363D02*
X83315162Y-52604744D01*
X83315162Y-52604744D02*
X83267543Y-52557124D01*
X83267543Y-52557124D02*
X83219924Y-52461886D01*
X83219924Y-52461886D02*
X83219924Y-52176172D01*
X83219924Y-52176172D02*
X83267543Y-52080934D01*
X83267543Y-52080934D02*
X83315162Y-52033315D01*
X83315162Y-52033315D02*
X83410400Y-51985696D01*
X83410400Y-51985696D02*
X83553257Y-51985696D01*
X83553257Y-51985696D02*
X83648495Y-52033315D01*
X83648495Y-52033315D02*
X83696114Y-52080934D01*
X83696114Y-52080934D02*
X83743733Y-52176172D01*
X83743733Y-52176172D02*
X83743733Y-52461886D01*
X83743733Y-52461886D02*
X83696114Y-52557124D01*
X83696114Y-52557124D02*
X83648495Y-52604744D01*
X83648495Y-52604744D02*
X83553257Y-52652363D01*
X83553257Y-52652363D02*
X83410400Y-52652363D01*
X84600876Y-52652363D02*
X84600876Y-52128553D01*
X84600876Y-52128553D02*
X84553257Y-52033315D01*
X84553257Y-52033315D02*
X84458019Y-51985696D01*
X84458019Y-51985696D02*
X84267543Y-51985696D01*
X84267543Y-51985696D02*
X84172305Y-52033315D01*
X84600876Y-52604744D02*
X84505638Y-52652363D01*
X84505638Y-52652363D02*
X84267543Y-52652363D01*
X84267543Y-52652363D02*
X84172305Y-52604744D01*
X84172305Y-52604744D02*
X84124686Y-52509505D01*
X84124686Y-52509505D02*
X84124686Y-52414267D01*
X84124686Y-52414267D02*
X84172305Y-52319029D01*
X84172305Y-52319029D02*
X84267543Y-52271410D01*
X84267543Y-52271410D02*
X84505638Y-52271410D01*
X84505638Y-52271410D02*
X84600876Y-52223791D01*
X85077067Y-52652363D02*
X85077067Y-51985696D01*
X85077067Y-52176172D02*
X85124686Y-52080934D01*
X85124686Y-52080934D02*
X85172305Y-52033315D01*
X85172305Y-52033315D02*
X85267543Y-51985696D01*
X85267543Y-51985696D02*
X85362781Y-51985696D01*
X86124686Y-52652363D02*
X86124686Y-51652363D01*
X86124686Y-52604744D02*
X86029448Y-52652363D01*
X86029448Y-52652363D02*
X85838972Y-52652363D01*
X85838972Y-52652363D02*
X85743734Y-52604744D01*
X85743734Y-52604744D02*
X85696115Y-52557124D01*
X85696115Y-52557124D02*
X85648496Y-52461886D01*
X85648496Y-52461886D02*
X85648496Y-52176172D01*
X85648496Y-52176172D02*
X85696115Y-52080934D01*
X85696115Y-52080934D02*
X85743734Y-52033315D01*
X85743734Y-52033315D02*
X85838972Y-51985696D01*
X85838972Y-51985696D02*
X86029448Y-51985696D01*
X86029448Y-51985696D02*
X86124686Y-52033315D01*
X87219925Y-51652363D02*
X87553258Y-52652363D01*
X87553258Y-52652363D02*
X87886591Y-51652363D01*
X88743734Y-52652363D02*
X88172306Y-52652363D01*
X88458020Y-52652363D02*
X88458020Y-51652363D01*
X88458020Y-51652363D02*
X88362782Y-51795220D01*
X88362782Y-51795220D02*
X88267544Y-51890458D01*
X88267544Y-51890458D02*
X88172306Y-51938077D01*
X80315163Y-53262307D02*
X80934210Y-53262307D01*
X80934210Y-53262307D02*
X80600877Y-53643259D01*
X80600877Y-53643259D02*
X80743734Y-53643259D01*
X80743734Y-53643259D02*
X80838972Y-53690878D01*
X80838972Y-53690878D02*
X80886591Y-53738497D01*
X80886591Y-53738497D02*
X80934210Y-53833735D01*
X80934210Y-53833735D02*
X80934210Y-54071830D01*
X80934210Y-54071830D02*
X80886591Y-54167068D01*
X80886591Y-54167068D02*
X80838972Y-54214688D01*
X80838972Y-54214688D02*
X80743734Y-54262307D01*
X80743734Y-54262307D02*
X80458020Y-54262307D01*
X80458020Y-54262307D02*
X80362782Y-54214688D01*
X80362782Y-54214688D02*
X80315163Y-54167068D01*
X82077067Y-53214688D02*
X81219925Y-54500402D01*
X82362782Y-53357545D02*
X82410401Y-53309926D01*
X82410401Y-53309926D02*
X82505639Y-53262307D01*
X82505639Y-53262307D02*
X82743734Y-53262307D01*
X82743734Y-53262307D02*
X82838972Y-53309926D01*
X82838972Y-53309926D02*
X82886591Y-53357545D01*
X82886591Y-53357545D02*
X82934210Y-53452783D01*
X82934210Y-53452783D02*
X82934210Y-53548021D01*
X82934210Y-53548021D02*
X82886591Y-53690878D01*
X82886591Y-53690878D02*
X82315163Y-54262307D01*
X82315163Y-54262307D02*
X82934210Y-54262307D01*
X83886591Y-54262307D02*
X83315163Y-54262307D01*
X83600877Y-54262307D02*
X83600877Y-53262307D01*
X83600877Y-53262307D02*
X83505639Y-53405164D01*
X83505639Y-53405164D02*
X83410401Y-53500402D01*
X83410401Y-53500402D02*
X83315163Y-53548021D01*
X85029448Y-53214688D02*
X84172306Y-54500402D01*
X85315163Y-53357545D02*
X85362782Y-53309926D01*
X85362782Y-53309926D02*
X85458020Y-53262307D01*
X85458020Y-53262307D02*
X85696115Y-53262307D01*
X85696115Y-53262307D02*
X85791353Y-53309926D01*
X85791353Y-53309926D02*
X85838972Y-53357545D01*
X85838972Y-53357545D02*
X85886591Y-53452783D01*
X85886591Y-53452783D02*
X85886591Y-53548021D01*
X85886591Y-53548021D02*
X85838972Y-53690878D01*
X85838972Y-53690878D02*
X85267544Y-54262307D01*
X85267544Y-54262307D02*
X85886591Y-54262307D01*
X86505639Y-53262307D02*
X86600877Y-53262307D01*
X86600877Y-53262307D02*
X86696115Y-53309926D01*
X86696115Y-53309926D02*
X86743734Y-53357545D01*
X86743734Y-53357545D02*
X86791353Y-53452783D01*
X86791353Y-53452783D02*
X86838972Y-53643259D01*
X86838972Y-53643259D02*
X86838972Y-53881354D01*
X86838972Y-53881354D02*
X86791353Y-54071830D01*
X86791353Y-54071830D02*
X86743734Y-54167068D01*
X86743734Y-54167068D02*
X86696115Y-54214688D01*
X86696115Y-54214688D02*
X86600877Y-54262307D01*
X86600877Y-54262307D02*
X86505639Y-54262307D01*
X86505639Y-54262307D02*
X86410401Y-54214688D01*
X86410401Y-54214688D02*
X86362782Y-54167068D01*
X86362782Y-54167068D02*
X86315163Y-54071830D01*
X86315163Y-54071830D02*
X86267544Y-53881354D01*
X86267544Y-53881354D02*
X86267544Y-53643259D01*
X86267544Y-53643259D02*
X86315163Y-53452783D01*
X86315163Y-53452783D02*
X86362782Y-53357545D01*
X86362782Y-53357545D02*
X86410401Y-53309926D01*
X86410401Y-53309926D02*
X86505639Y-53262307D01*
X87219925Y-53357545D02*
X87267544Y-53309926D01*
X87267544Y-53309926D02*
X87362782Y-53262307D01*
X87362782Y-53262307D02*
X87600877Y-53262307D01*
X87600877Y-53262307D02*
X87696115Y-53309926D01*
X87696115Y-53309926D02*
X87743734Y-53357545D01*
X87743734Y-53357545D02*
X87791353Y-53452783D01*
X87791353Y-53452783D02*
X87791353Y-53548021D01*
X87791353Y-53548021D02*
X87743734Y-53690878D01*
X87743734Y-53690878D02*
X87172306Y-54262307D01*
X87172306Y-54262307D02*
X87791353Y-54262307D01*
X88648496Y-53262307D02*
X88458020Y-53262307D01*
X88458020Y-53262307D02*
X88362782Y-53309926D01*
X88362782Y-53309926D02*
X88315163Y-53357545D01*
X88315163Y-53357545D02*
X88219925Y-53500402D01*
X88219925Y-53500402D02*
X88172306Y-53690878D01*
X88172306Y-53690878D02*
X88172306Y-54071830D01*
X88172306Y-54071830D02*
X88219925Y-54167068D01*
X88219925Y-54167068D02*
X88267544Y-54214688D01*
X88267544Y-54214688D02*
X88362782Y-54262307D01*
X88362782Y-54262307D02*
X88553258Y-54262307D01*
X88553258Y-54262307D02*
X88648496Y-54214688D01*
X88648496Y-54214688D02*
X88696115Y-54167068D01*
X88696115Y-54167068D02*
X88743734Y-54071830D01*
X88743734Y-54071830D02*
X88743734Y-53833735D01*
X88743734Y-53833735D02*
X88696115Y-53738497D01*
X88696115Y-53738497D02*
X88648496Y-53690878D01*
X88648496Y-53690878D02*
X88553258Y-53643259D01*
X88553258Y-53643259D02*
X88362782Y-53643259D01*
X88362782Y-53643259D02*
X88267544Y-53690878D01*
X88267544Y-53690878D02*
X88219925Y-53738497D01*
X88219925Y-53738497D02*
X88172306Y-53833735D01*
X45749999Y-25903014D02*
X45964285Y-25974442D01*
X45964285Y-25974442D02*
X46035714Y-26045871D01*
X46035714Y-26045871D02*
X46107142Y-26188728D01*
X46107142Y-26188728D02*
X46107142Y-26403014D01*
X46107142Y-26403014D02*
X46035714Y-26545871D01*
X46035714Y-26545871D02*
X45964285Y-26617300D01*
X45964285Y-26617300D02*
X45821428Y-26688728D01*
X45821428Y-26688728D02*
X45249999Y-26688728D01*
X45249999Y-26688728D02*
X45249999Y-25188728D01*
X45249999Y-25188728D02*
X45749999Y-25188728D01*
X45749999Y-25188728D02*
X45892857Y-25260157D01*
X45892857Y-25260157D02*
X45964285Y-25331585D01*
X45964285Y-25331585D02*
X46035714Y-25474442D01*
X46035714Y-25474442D02*
X46035714Y-25617300D01*
X46035714Y-25617300D02*
X45964285Y-25760157D01*
X45964285Y-25760157D02*
X45892857Y-25831585D01*
X45892857Y-25831585D02*
X45749999Y-25903014D01*
X45749999Y-25903014D02*
X45249999Y-25903014D01*
X46535714Y-25188728D02*
X47392857Y-25188728D01*
X46964285Y-26688728D02*
X46964285Y-25188728D01*
X47892856Y-26688728D02*
X47892856Y-25188728D01*
X47892856Y-25188728D02*
X48749999Y-26688728D01*
X48749999Y-26688728D02*
X48749999Y-25188728D01*
X43714286Y-71688728D02*
X43214286Y-70974442D01*
X42857143Y-71688728D02*
X42857143Y-70188728D01*
X42857143Y-70188728D02*
X43428572Y-70188728D01*
X43428572Y-70188728D02*
X43571429Y-70260157D01*
X43571429Y-70260157D02*
X43642858Y-70331585D01*
X43642858Y-70331585D02*
X43714286Y-70474442D01*
X43714286Y-70474442D02*
X43714286Y-70688728D01*
X43714286Y-70688728D02*
X43642858Y-70831585D01*
X43642858Y-70831585D02*
X43571429Y-70903014D01*
X43571429Y-70903014D02*
X43428572Y-70974442D01*
X43428572Y-70974442D02*
X42857143Y-70974442D01*
X45000001Y-71688728D02*
X45000001Y-70903014D01*
X45000001Y-70903014D02*
X44928572Y-70760157D01*
X44928572Y-70760157D02*
X44785715Y-70688728D01*
X44785715Y-70688728D02*
X44500001Y-70688728D01*
X44500001Y-70688728D02*
X44357143Y-70760157D01*
X45000001Y-71617300D02*
X44857143Y-71688728D01*
X44857143Y-71688728D02*
X44500001Y-71688728D01*
X44500001Y-71688728D02*
X44357143Y-71617300D01*
X44357143Y-71617300D02*
X44285715Y-71474442D01*
X44285715Y-71474442D02*
X44285715Y-71331585D01*
X44285715Y-71331585D02*
X44357143Y-71188728D01*
X44357143Y-71188728D02*
X44500001Y-71117300D01*
X44500001Y-71117300D02*
X44857143Y-71117300D01*
X44857143Y-71117300D02*
X45000001Y-71045871D01*
X45642858Y-71617300D02*
X45785715Y-71688728D01*
X45785715Y-71688728D02*
X46071429Y-71688728D01*
X46071429Y-71688728D02*
X46214286Y-71617300D01*
X46214286Y-71617300D02*
X46285715Y-71474442D01*
X46285715Y-71474442D02*
X46285715Y-71403014D01*
X46285715Y-71403014D02*
X46214286Y-71260157D01*
X46214286Y-71260157D02*
X46071429Y-71188728D01*
X46071429Y-71188728D02*
X45857144Y-71188728D01*
X45857144Y-71188728D02*
X45714286Y-71117300D01*
X45714286Y-71117300D02*
X45642858Y-70974442D01*
X45642858Y-70974442D02*
X45642858Y-70903014D01*
X45642858Y-70903014D02*
X45714286Y-70760157D01*
X45714286Y-70760157D02*
X45857144Y-70688728D01*
X45857144Y-70688728D02*
X46071429Y-70688728D01*
X46071429Y-70688728D02*
X46214286Y-70760157D01*
X46928572Y-70688728D02*
X46928572Y-72188728D01*
X46928572Y-70760157D02*
X47071430Y-70688728D01*
X47071430Y-70688728D02*
X47357144Y-70688728D01*
X47357144Y-70688728D02*
X47500001Y-70760157D01*
X47500001Y-70760157D02*
X47571430Y-70831585D01*
X47571430Y-70831585D02*
X47642858Y-70974442D01*
X47642858Y-70974442D02*
X47642858Y-71403014D01*
X47642858Y-71403014D02*
X47571430Y-71545871D01*
X47571430Y-71545871D02*
X47500001Y-71617300D01*
X47500001Y-71617300D02*
X47357144Y-71688728D01*
X47357144Y-71688728D02*
X47071430Y-71688728D01*
X47071430Y-71688728D02*
X46928572Y-71617300D01*
X48285715Y-71688728D02*
X48285715Y-70188728D01*
X48285715Y-70760157D02*
X48428573Y-70688728D01*
X48428573Y-70688728D02*
X48714287Y-70688728D01*
X48714287Y-70688728D02*
X48857144Y-70760157D01*
X48857144Y-70760157D02*
X48928573Y-70831585D01*
X48928573Y-70831585D02*
X49000001Y-70974442D01*
X49000001Y-70974442D02*
X49000001Y-71403014D01*
X49000001Y-71403014D02*
X48928573Y-71545871D01*
X48928573Y-71545871D02*
X48857144Y-71617300D01*
X48857144Y-71617300D02*
X48714287Y-71688728D01*
X48714287Y-71688728D02*
X48428573Y-71688728D01*
X48428573Y-71688728D02*
X48285715Y-71617300D01*
X50214287Y-71617300D02*
X50071430Y-71688728D01*
X50071430Y-71688728D02*
X49785716Y-71688728D01*
X49785716Y-71688728D02*
X49642858Y-71617300D01*
X49642858Y-71617300D02*
X49571430Y-71474442D01*
X49571430Y-71474442D02*
X49571430Y-70903014D01*
X49571430Y-70903014D02*
X49642858Y-70760157D01*
X49642858Y-70760157D02*
X49785716Y-70688728D01*
X49785716Y-70688728D02*
X50071430Y-70688728D01*
X50071430Y-70688728D02*
X50214287Y-70760157D01*
X50214287Y-70760157D02*
X50285716Y-70903014D01*
X50285716Y-70903014D02*
X50285716Y-71045871D01*
X50285716Y-71045871D02*
X49571430Y-71188728D01*
X50928572Y-71688728D02*
X50928572Y-70688728D01*
X50928572Y-70974442D02*
X51000001Y-70831585D01*
X51000001Y-70831585D02*
X51071430Y-70760157D01*
X51071430Y-70760157D02*
X51214287Y-70688728D01*
X51214287Y-70688728D02*
X51357144Y-70688728D01*
X51857143Y-71688728D02*
X51857143Y-70688728D01*
X51857143Y-70974442D02*
X51928572Y-70831585D01*
X51928572Y-70831585D02*
X52000001Y-70760157D01*
X52000001Y-70760157D02*
X52142858Y-70688728D01*
X52142858Y-70688728D02*
X52285715Y-70688728D01*
X52642857Y-70688728D02*
X53000000Y-71688728D01*
X53357143Y-70688728D02*
X53000000Y-71688728D01*
X53000000Y-71688728D02*
X52857143Y-72045871D01*
X52857143Y-72045871D02*
X52785714Y-72117300D01*
X52785714Y-72117300D02*
X52642857Y-72188728D01*
X55071428Y-71688728D02*
X55071428Y-70188728D01*
X55071428Y-70188728D02*
X55642857Y-70188728D01*
X55642857Y-70188728D02*
X55785714Y-70260157D01*
X55785714Y-70260157D02*
X55857143Y-70331585D01*
X55857143Y-70331585D02*
X55928571Y-70474442D01*
X55928571Y-70474442D02*
X55928571Y-70688728D01*
X55928571Y-70688728D02*
X55857143Y-70831585D01*
X55857143Y-70831585D02*
X55785714Y-70903014D01*
X55785714Y-70903014D02*
X55642857Y-70974442D01*
X55642857Y-70974442D02*
X55071428Y-70974442D01*
X56571428Y-71688728D02*
X56571428Y-70688728D01*
X56571428Y-70188728D02*
X56500000Y-70260157D01*
X56500000Y-70260157D02*
X56571428Y-70331585D01*
X56571428Y-70331585D02*
X56642857Y-70260157D01*
X56642857Y-70260157D02*
X56571428Y-70188728D01*
X56571428Y-70188728D02*
X56571428Y-70331585D01*
X58428571Y-71688728D02*
X58428571Y-70188728D01*
X58428571Y-70188728D02*
X59000000Y-70188728D01*
X59000000Y-70188728D02*
X59142857Y-70260157D01*
X59142857Y-70260157D02*
X59214286Y-70331585D01*
X59214286Y-70331585D02*
X59285714Y-70474442D01*
X59285714Y-70474442D02*
X59285714Y-70688728D01*
X59285714Y-70688728D02*
X59214286Y-70831585D01*
X59214286Y-70831585D02*
X59142857Y-70903014D01*
X59142857Y-70903014D02*
X59000000Y-70974442D01*
X59000000Y-70974442D02*
X58428571Y-70974442D01*
X59928571Y-71688728D02*
X59928571Y-70688728D01*
X59928571Y-70188728D02*
X59857143Y-70260157D01*
X59857143Y-70260157D02*
X59928571Y-70331585D01*
X59928571Y-70331585D02*
X60000000Y-70260157D01*
X60000000Y-70260157D02*
X59928571Y-70188728D01*
X59928571Y-70188728D02*
X59928571Y-70331585D01*
X61285715Y-71617300D02*
X61142857Y-71688728D01*
X61142857Y-71688728D02*
X60857143Y-71688728D01*
X60857143Y-71688728D02*
X60714286Y-71617300D01*
X60714286Y-71617300D02*
X60642857Y-71545871D01*
X60642857Y-71545871D02*
X60571429Y-71403014D01*
X60571429Y-71403014D02*
X60571429Y-70974442D01*
X60571429Y-70974442D02*
X60642857Y-70831585D01*
X60642857Y-70831585D02*
X60714286Y-70760157D01*
X60714286Y-70760157D02*
X60857143Y-70688728D01*
X60857143Y-70688728D02*
X61142857Y-70688728D01*
X61142857Y-70688728D02*
X61285715Y-70760157D01*
X62142857Y-71688728D02*
X62000000Y-71617300D01*
X62000000Y-71617300D02*
X61928571Y-71545871D01*
X61928571Y-71545871D02*
X61857143Y-71403014D01*
X61857143Y-71403014D02*
X61857143Y-70974442D01*
X61857143Y-70974442D02*
X61928571Y-70831585D01*
X61928571Y-70831585D02*
X62000000Y-70760157D01*
X62000000Y-70760157D02*
X62142857Y-70688728D01*
X62142857Y-70688728D02*
X62357143Y-70688728D01*
X62357143Y-70688728D02*
X62500000Y-70760157D01*
X62500000Y-70760157D02*
X62571429Y-70831585D01*
X62571429Y-70831585D02*
X62642857Y-70974442D01*
X62642857Y-70974442D02*
X62642857Y-71403014D01*
X62642857Y-71403014D02*
X62571429Y-71545871D01*
X62571429Y-71545871D02*
X62500000Y-71617300D01*
X62500000Y-71617300D02*
X62357143Y-71688728D01*
X62357143Y-71688728D02*
X62142857Y-71688728D01*
X64357143Y-70331585D02*
X64428571Y-70260157D01*
X64428571Y-70260157D02*
X64571429Y-70188728D01*
X64571429Y-70188728D02*
X64928571Y-70188728D01*
X64928571Y-70188728D02*
X65071429Y-70260157D01*
X65071429Y-70260157D02*
X65142857Y-70331585D01*
X65142857Y-70331585D02*
X65214286Y-70474442D01*
X65214286Y-70474442D02*
X65214286Y-70617300D01*
X65214286Y-70617300D02*
X65142857Y-70831585D01*
X65142857Y-70831585D02*
X64285714Y-71688728D01*
X64285714Y-71688728D02*
X65214286Y-71688728D01*
X37481270Y-49267142D02*
X35981270Y-49267142D01*
X35981270Y-49267142D02*
X37052699Y-48767142D01*
X37052699Y-48767142D02*
X35981270Y-48267142D01*
X35981270Y-48267142D02*
X37481270Y-48267142D01*
X37481270Y-47552856D02*
X36481270Y-47552856D01*
X35981270Y-47552856D02*
X36052699Y-47624284D01*
X36052699Y-47624284D02*
X36124127Y-47552856D01*
X36124127Y-47552856D02*
X36052699Y-47481427D01*
X36052699Y-47481427D02*
X35981270Y-47552856D01*
X35981270Y-47552856D02*
X36124127Y-47552856D01*
X37409842Y-46195713D02*
X37481270Y-46338570D01*
X37481270Y-46338570D02*
X37481270Y-46624284D01*
X37481270Y-46624284D02*
X37409842Y-46767141D01*
X37409842Y-46767141D02*
X37338413Y-46838570D01*
X37338413Y-46838570D02*
X37195556Y-46909998D01*
X37195556Y-46909998D02*
X36766984Y-46909998D01*
X36766984Y-46909998D02*
X36624127Y-46838570D01*
X36624127Y-46838570D02*
X36552699Y-46767141D01*
X36552699Y-46767141D02*
X36481270Y-46624284D01*
X36481270Y-46624284D02*
X36481270Y-46338570D01*
X36481270Y-46338570D02*
X36552699Y-46195713D01*
X37481270Y-45552856D02*
X36481270Y-45552856D01*
X36766984Y-45552856D02*
X36624127Y-45481427D01*
X36624127Y-45481427D02*
X36552699Y-45409999D01*
X36552699Y-45409999D02*
X36481270Y-45267141D01*
X36481270Y-45267141D02*
X36481270Y-45124284D01*
X37481270Y-44409999D02*
X37409842Y-44552856D01*
X37409842Y-44552856D02*
X37338413Y-44624285D01*
X37338413Y-44624285D02*
X37195556Y-44695713D01*
X37195556Y-44695713D02*
X36766984Y-44695713D01*
X36766984Y-44695713D02*
X36624127Y-44624285D01*
X36624127Y-44624285D02*
X36552699Y-44552856D01*
X36552699Y-44552856D02*
X36481270Y-44409999D01*
X36481270Y-44409999D02*
X36481270Y-44195713D01*
X36481270Y-44195713D02*
X36552699Y-44052856D01*
X36552699Y-44052856D02*
X36624127Y-43981428D01*
X36624127Y-43981428D02*
X36766984Y-43909999D01*
X36766984Y-43909999D02*
X37195556Y-43909999D01*
X37195556Y-43909999D02*
X37338413Y-43981428D01*
X37338413Y-43981428D02*
X37409842Y-44052856D01*
X37409842Y-44052856D02*
X37481270Y-44195713D01*
X37481270Y-44195713D02*
X37481270Y-44409999D01*
X37409842Y-43338570D02*
X37481270Y-43124285D01*
X37481270Y-43124285D02*
X37481270Y-42767142D01*
X37481270Y-42767142D02*
X37409842Y-42624285D01*
X37409842Y-42624285D02*
X37338413Y-42552856D01*
X37338413Y-42552856D02*
X37195556Y-42481427D01*
X37195556Y-42481427D02*
X37052699Y-42481427D01*
X37052699Y-42481427D02*
X36909842Y-42552856D01*
X36909842Y-42552856D02*
X36838413Y-42624285D01*
X36838413Y-42624285D02*
X36766984Y-42767142D01*
X36766984Y-42767142D02*
X36695556Y-43052856D01*
X36695556Y-43052856D02*
X36624127Y-43195713D01*
X36624127Y-43195713D02*
X36552699Y-43267142D01*
X36552699Y-43267142D02*
X36409842Y-43338570D01*
X36409842Y-43338570D02*
X36266984Y-43338570D01*
X36266984Y-43338570D02*
X36124127Y-43267142D01*
X36124127Y-43267142D02*
X36052699Y-43195713D01*
X36052699Y-43195713D02*
X35981270Y-43052856D01*
X35981270Y-43052856D02*
X35981270Y-42695713D01*
X35981270Y-42695713D02*
X36052699Y-42481427D01*
X37481270Y-41838571D02*
X35981270Y-41838571D01*
X35981270Y-41838571D02*
X35981270Y-41481428D01*
X35981270Y-41481428D02*
X36052699Y-41267142D01*
X36052699Y-41267142D02*
X36195556Y-41124285D01*
X36195556Y-41124285D02*
X36338413Y-41052856D01*
X36338413Y-41052856D02*
X36624127Y-40981428D01*
X36624127Y-40981428D02*
X36838413Y-40981428D01*
X36838413Y-40981428D02*
X37124127Y-41052856D01*
X37124127Y-41052856D02*
X37266984Y-41124285D01*
X37266984Y-41124285D02*
X37409842Y-41267142D01*
X37409842Y-41267142D02*
X37481270Y-41481428D01*
X37481270Y-41481428D02*
X37481270Y-41838571D01*
X39110472Y-49231428D02*
X39181900Y-49017142D01*
X39181900Y-49017142D02*
X39253329Y-48945713D01*
X39253329Y-48945713D02*
X39396186Y-48874285D01*
X39396186Y-48874285D02*
X39610472Y-48874285D01*
X39610472Y-48874285D02*
X39753329Y-48945713D01*
X39753329Y-48945713D02*
X39824758Y-49017142D01*
X39824758Y-49017142D02*
X39896186Y-49159999D01*
X39896186Y-49159999D02*
X39896186Y-49731428D01*
X39896186Y-49731428D02*
X38396186Y-49731428D01*
X38396186Y-49731428D02*
X38396186Y-49231428D01*
X38396186Y-49231428D02*
X38467615Y-49088571D01*
X38467615Y-49088571D02*
X38539043Y-49017142D01*
X38539043Y-49017142D02*
X38681900Y-48945713D01*
X38681900Y-48945713D02*
X38824758Y-48945713D01*
X38824758Y-48945713D02*
X38967615Y-49017142D01*
X38967615Y-49017142D02*
X39039043Y-49088571D01*
X39039043Y-49088571D02*
X39110472Y-49231428D01*
X39110472Y-49231428D02*
X39110472Y-49731428D01*
X39896186Y-48231428D02*
X38896186Y-48231428D01*
X39181900Y-48231428D02*
X39039043Y-48159999D01*
X39039043Y-48159999D02*
X38967615Y-48088571D01*
X38967615Y-48088571D02*
X38896186Y-47945713D01*
X38896186Y-47945713D02*
X38896186Y-47802856D01*
X39824758Y-46731428D02*
X39896186Y-46874285D01*
X39896186Y-46874285D02*
X39896186Y-47160000D01*
X39896186Y-47160000D02*
X39824758Y-47302857D01*
X39824758Y-47302857D02*
X39681900Y-47374285D01*
X39681900Y-47374285D02*
X39110472Y-47374285D01*
X39110472Y-47374285D02*
X38967615Y-47302857D01*
X38967615Y-47302857D02*
X38896186Y-47160000D01*
X38896186Y-47160000D02*
X38896186Y-46874285D01*
X38896186Y-46874285D02*
X38967615Y-46731428D01*
X38967615Y-46731428D02*
X39110472Y-46660000D01*
X39110472Y-46660000D02*
X39253329Y-46660000D01*
X39253329Y-46660000D02*
X39396186Y-47374285D01*
X39896186Y-45374286D02*
X39110472Y-45374286D01*
X39110472Y-45374286D02*
X38967615Y-45445714D01*
X38967615Y-45445714D02*
X38896186Y-45588571D01*
X38896186Y-45588571D02*
X38896186Y-45874286D01*
X38896186Y-45874286D02*
X38967615Y-46017143D01*
X39824758Y-45374286D02*
X39896186Y-45517143D01*
X39896186Y-45517143D02*
X39896186Y-45874286D01*
X39896186Y-45874286D02*
X39824758Y-46017143D01*
X39824758Y-46017143D02*
X39681900Y-46088571D01*
X39681900Y-46088571D02*
X39539043Y-46088571D01*
X39539043Y-46088571D02*
X39396186Y-46017143D01*
X39396186Y-46017143D02*
X39324758Y-45874286D01*
X39324758Y-45874286D02*
X39324758Y-45517143D01*
X39324758Y-45517143D02*
X39253329Y-45374286D01*
X39896186Y-44660000D02*
X38396186Y-44660000D01*
X39324758Y-44517143D02*
X39896186Y-44088571D01*
X38896186Y-44088571D02*
X39467615Y-44660000D01*
X39896186Y-43231428D02*
X39824758Y-43374285D01*
X39824758Y-43374285D02*
X39753329Y-43445714D01*
X39753329Y-43445714D02*
X39610472Y-43517142D01*
X39610472Y-43517142D02*
X39181900Y-43517142D01*
X39181900Y-43517142D02*
X39039043Y-43445714D01*
X39039043Y-43445714D02*
X38967615Y-43374285D01*
X38967615Y-43374285D02*
X38896186Y-43231428D01*
X38896186Y-43231428D02*
X38896186Y-43017142D01*
X38896186Y-43017142D02*
X38967615Y-42874285D01*
X38967615Y-42874285D02*
X39039043Y-42802857D01*
X39039043Y-42802857D02*
X39181900Y-42731428D01*
X39181900Y-42731428D02*
X39610472Y-42731428D01*
X39610472Y-42731428D02*
X39753329Y-42802857D01*
X39753329Y-42802857D02*
X39824758Y-42874285D01*
X39824758Y-42874285D02*
X39896186Y-43017142D01*
X39896186Y-43017142D02*
X39896186Y-43231428D01*
X38896186Y-41445714D02*
X39896186Y-41445714D01*
X38896186Y-42088571D02*
X39681900Y-42088571D01*
X39681900Y-42088571D02*
X39824758Y-42017142D01*
X39824758Y-42017142D02*
X39896186Y-41874285D01*
X39896186Y-41874285D02*
X39896186Y-41659999D01*
X39896186Y-41659999D02*
X39824758Y-41517142D01*
X39824758Y-41517142D02*
X39753329Y-41445714D01*
X38896186Y-40945713D02*
X38896186Y-40374285D01*
X38396186Y-40731428D02*
X39681900Y-40731428D01*
X39681900Y-40731428D02*
X39824758Y-40659999D01*
X39824758Y-40659999D02*
X39896186Y-40517142D01*
X39896186Y-40517142D02*
X39896186Y-40374285D01*
X43018169Y-20824800D02*
X42161027Y-22110514D01*
X43351503Y-21205752D02*
X43351503Y-22062895D01*
X43351503Y-22062895D02*
X43303884Y-22158133D01*
X43303884Y-22158133D02*
X43208646Y-22205752D01*
X43208646Y-22205752D02*
X43161027Y-22205752D01*
X43351503Y-20872419D02*
X43303884Y-20920038D01*
X43303884Y-20920038D02*
X43351503Y-20967657D01*
X43351503Y-20967657D02*
X43399122Y-20920038D01*
X43399122Y-20920038D02*
X43351503Y-20872419D01*
X43351503Y-20872419D02*
X43351503Y-20967657D01*
X45351503Y-21205752D02*
X44589598Y-21491466D01*
X44589598Y-21491466D02*
X45351503Y-21777180D01*
X45827693Y-21491466D02*
X46589598Y-21491466D01*
X47065788Y-21205752D02*
X47827693Y-21491466D01*
X47827693Y-21491466D02*
X47065788Y-21777180D01*
X49780073Y-20824800D02*
X48922931Y-22110514D01*
X50065788Y-21824800D02*
X50161026Y-21872419D01*
X50161026Y-21872419D02*
X50351502Y-21872419D01*
X50351502Y-21872419D02*
X50446740Y-21824800D01*
X50446740Y-21824800D02*
X50494359Y-21729561D01*
X50494359Y-21729561D02*
X50494359Y-21681942D01*
X50494359Y-21681942D02*
X50446740Y-21586704D01*
X50446740Y-21586704D02*
X50351502Y-21539085D01*
X50351502Y-21539085D02*
X50208645Y-21539085D01*
X50208645Y-21539085D02*
X50113407Y-21491466D01*
X50113407Y-21491466D02*
X50065788Y-21396228D01*
X50065788Y-21396228D02*
X50065788Y-21348609D01*
X50065788Y-21348609D02*
X50113407Y-21253371D01*
X50113407Y-21253371D02*
X50208645Y-21205752D01*
X50208645Y-21205752D02*
X50351502Y-21205752D01*
X50351502Y-21205752D02*
X50446740Y-21253371D01*
X50922931Y-21872419D02*
X50922931Y-21205752D01*
X50922931Y-21396228D02*
X50970550Y-21300990D01*
X50970550Y-21300990D02*
X51018169Y-21253371D01*
X51018169Y-21253371D02*
X51113407Y-21205752D01*
X51113407Y-21205752D02*
X51208645Y-21205752D01*
X51494360Y-21824800D02*
X51589598Y-21872419D01*
X51589598Y-21872419D02*
X51780074Y-21872419D01*
X51780074Y-21872419D02*
X51875312Y-21824800D01*
X51875312Y-21824800D02*
X51922931Y-21729561D01*
X51922931Y-21729561D02*
X51922931Y-21681942D01*
X51922931Y-21681942D02*
X51875312Y-21586704D01*
X51875312Y-21586704D02*
X51780074Y-21539085D01*
X51780074Y-21539085D02*
X51637217Y-21539085D01*
X51637217Y-21539085D02*
X51541979Y-21491466D01*
X51541979Y-21491466D02*
X51494360Y-21396228D01*
X51494360Y-21396228D02*
X51494360Y-21348609D01*
X51494360Y-21348609D02*
X51541979Y-21253371D01*
X51541979Y-21253371D02*
X51637217Y-21205752D01*
X51637217Y-21205752D02*
X51780074Y-21205752D01*
X51780074Y-21205752D02*
X51875312Y-21253371D01*
D11*
X79044104Y-65710839D02*
X79044104Y-65234649D01*
X79329819Y-65806077D02*
X78329819Y-65472744D01*
X78329819Y-65472744D02*
X79329819Y-65139411D01*
X79329819Y-64282268D02*
X79329819Y-64853696D01*
X79329819Y-64567982D02*
X78329819Y-64567982D01*
X78329819Y-64567982D02*
X78472676Y-64663220D01*
X78472676Y-64663220D02*
X78567914Y-64758458D01*
X78567914Y-64758458D02*
X78615533Y-64853696D01*
D10*
X30409800Y-57261904D02*
X30457419Y-57119047D01*
X30457419Y-57119047D02*
X30457419Y-56880952D01*
X30457419Y-56880952D02*
X30409800Y-56785714D01*
X30409800Y-56785714D02*
X30362180Y-56738095D01*
X30362180Y-56738095D02*
X30266942Y-56690476D01*
X30266942Y-56690476D02*
X30171704Y-56690476D01*
X30171704Y-56690476D02*
X30076466Y-56738095D01*
X30076466Y-56738095D02*
X30028847Y-56785714D01*
X30028847Y-56785714D02*
X29981228Y-56880952D01*
X29981228Y-56880952D02*
X29933609Y-57071428D01*
X29933609Y-57071428D02*
X29885990Y-57166666D01*
X29885990Y-57166666D02*
X29838371Y-57214285D01*
X29838371Y-57214285D02*
X29743133Y-57261904D01*
X29743133Y-57261904D02*
X29647895Y-57261904D01*
X29647895Y-57261904D02*
X29552657Y-57214285D01*
X29552657Y-57214285D02*
X29505038Y-57166666D01*
X29505038Y-57166666D02*
X29457419Y-57071428D01*
X29457419Y-57071428D02*
X29457419Y-56833333D01*
X29457419Y-56833333D02*
X29505038Y-56690476D01*
X30457419Y-56261904D02*
X29457419Y-56261904D01*
X29457419Y-56261904D02*
X29457419Y-56023809D01*
X29457419Y-56023809D02*
X29505038Y-55880952D01*
X29505038Y-55880952D02*
X29600276Y-55785714D01*
X29600276Y-55785714D02*
X29695514Y-55738095D01*
X29695514Y-55738095D02*
X29885990Y-55690476D01*
X29885990Y-55690476D02*
X30028847Y-55690476D01*
X30028847Y-55690476D02*
X30219323Y-55738095D01*
X30219323Y-55738095D02*
X30314561Y-55785714D01*
X30314561Y-55785714D02*
X30409800Y-55880952D01*
X30409800Y-55880952D02*
X30457419Y-56023809D01*
X30457419Y-56023809D02*
X30457419Y-56261904D01*
X30457419Y-54738095D02*
X30457419Y-55309523D01*
X30457419Y-55023809D02*
X29457419Y-55023809D01*
X29457419Y-55023809D02*
X29600276Y-55119047D01*
X29600276Y-55119047D02*
X29695514Y-55214285D01*
X29695514Y-55214285D02*
X29743133Y-55309523D01*
D11*
X45666667Y-30407200D02*
X45809524Y-30454819D01*
X45809524Y-30454819D02*
X46047619Y-30454819D01*
X46047619Y-30454819D02*
X46142857Y-30407200D01*
X46142857Y-30407200D02*
X46190476Y-30359580D01*
X46190476Y-30359580D02*
X46238095Y-30264342D01*
X46238095Y-30264342D02*
X46238095Y-30169104D01*
X46238095Y-30169104D02*
X46190476Y-30073866D01*
X46190476Y-30073866D02*
X46142857Y-30026247D01*
X46142857Y-30026247D02*
X46047619Y-29978628D01*
X46047619Y-29978628D02*
X45857143Y-29931009D01*
X45857143Y-29931009D02*
X45761905Y-29883390D01*
X45761905Y-29883390D02*
X45714286Y-29835771D01*
X45714286Y-29835771D02*
X45666667Y-29740533D01*
X45666667Y-29740533D02*
X45666667Y-29645295D01*
X45666667Y-29645295D02*
X45714286Y-29550057D01*
X45714286Y-29550057D02*
X45761905Y-29502438D01*
X45761905Y-29502438D02*
X45857143Y-29454819D01*
X45857143Y-29454819D02*
X46095238Y-29454819D01*
X46095238Y-29454819D02*
X46238095Y-29502438D01*
X46571429Y-29454819D02*
X46809524Y-30454819D01*
X46809524Y-30454819D02*
X47000000Y-29740533D01*
X47000000Y-29740533D02*
X47190476Y-30454819D01*
X47190476Y-30454819D02*
X47428572Y-29454819D01*
X48333333Y-30454819D02*
X47761905Y-30454819D01*
X48047619Y-30454819D02*
X48047619Y-29454819D01*
X48047619Y-29454819D02*
X47952381Y-29597676D01*
X47952381Y-29597676D02*
X47857143Y-29692914D01*
X47857143Y-29692914D02*
X47761905Y-29740533D01*
D12*
%TO.C,A1*%
X79299937Y-60530324D02*
G75*
G02*
X79720069Y-61110000I-189837J-579676D01*
G01*
X28500000Y-61110000D02*
G75*
G02*
X28920063Y-60530324I610000J0D01*
G01*
X79720000Y-81110000D02*
G75*
G02*
X79299937Y-81689676I-610002J1D01*
G01*
X28920000Y-81689676D02*
G75*
G02*
X28500000Y-81110000I190051J579692D01*
G01*
X76760000Y-60500000D02*
X77180000Y-60500000D01*
X74220000Y-60500000D02*
X74640000Y-60500000D01*
X71680000Y-60500000D02*
X72100000Y-60500000D01*
X69140000Y-60500000D02*
X69560000Y-60500000D01*
X66600000Y-60500000D02*
X67020000Y-60500000D01*
X64060000Y-60500000D02*
X64480000Y-60500000D01*
X61520000Y-60500000D02*
X61940000Y-60500000D01*
X58980000Y-60500000D02*
X59400000Y-60500000D01*
X56440000Y-60500000D02*
X56860000Y-60500000D01*
X53900000Y-60500000D02*
X54320000Y-60500000D01*
X51360000Y-60500000D02*
X51780000Y-60500000D01*
X48820000Y-60500000D02*
X49240000Y-60500000D01*
X46280000Y-60500000D02*
X46700000Y-60500000D01*
X43740000Y-60500000D02*
X44160000Y-60500000D01*
X41200000Y-60500000D02*
X41620000Y-60500000D01*
X38660000Y-60500000D02*
X39080000Y-60500000D01*
X36120000Y-60500000D02*
X36540000Y-60500000D01*
X33580000Y-60500000D02*
X34000000Y-60500000D01*
X31040000Y-60500000D02*
X31460000Y-60500000D01*
X79299937Y-60840000D02*
X79657000Y-60840000D01*
X76760000Y-60840000D02*
X77180000Y-60840000D01*
X74220000Y-60840000D02*
X74640000Y-60840000D01*
X71680000Y-60840000D02*
X72100000Y-60840000D01*
X69140000Y-60840000D02*
X69560000Y-60840000D01*
X66600000Y-60840000D02*
X67020000Y-60840000D01*
X64060000Y-60840000D02*
X64480000Y-60840000D01*
X61520000Y-60840000D02*
X61940000Y-60840000D01*
X58980000Y-60840000D02*
X59400000Y-60840000D01*
X56440000Y-60840000D02*
X56860000Y-60840000D01*
X53900000Y-60840000D02*
X54320000Y-60840000D01*
X51360000Y-60840000D02*
X51780000Y-60840000D01*
X48820000Y-60840000D02*
X49240000Y-60840000D01*
X46280000Y-60840000D02*
X46700000Y-60840000D01*
X43740000Y-60840000D02*
X44160000Y-60840000D01*
X41200000Y-60840000D02*
X41620000Y-60840000D01*
X38660000Y-60840000D02*
X39080000Y-60840000D01*
X36120000Y-60840000D02*
X36540000Y-60840000D01*
X33580000Y-60840000D02*
X34000000Y-60840000D01*
X31040000Y-60840000D02*
X31460000Y-60840000D01*
X28920063Y-60840000D02*
X28563000Y-60840000D01*
X28500000Y-61110000D02*
X28500000Y-63600000D01*
X78806480Y-63600000D02*
X79720000Y-63600000D01*
X31806480Y-63600000D02*
X76413520Y-63600000D01*
X28500000Y-63600000D02*
X29413520Y-63600000D01*
X79720000Y-64947939D02*
X79720000Y-61110000D01*
X28500000Y-64947939D02*
X28500000Y-63600000D01*
X79720000Y-65872061D02*
X79720000Y-67510000D01*
X28500000Y-66875000D02*
X28500000Y-65872061D01*
X31804000Y-67210000D02*
X33020000Y-67210000D01*
X28500000Y-67210000D02*
X29416000Y-67210000D01*
X33020000Y-67506090D02*
X33020000Y-67210000D01*
X79720000Y-67510000D02*
X79720000Y-74710000D01*
X33020000Y-72356090D02*
X33020000Y-69863910D01*
X79720000Y-74710000D02*
X79720000Y-76347939D01*
X33020000Y-75010000D02*
X33020000Y-74713910D01*
X31804000Y-75010000D02*
X33020000Y-75010000D01*
X28500000Y-75010000D02*
X29416000Y-75010000D01*
X28500000Y-75345000D02*
X28500000Y-66875000D01*
X28500000Y-76347939D02*
X28500000Y-75345000D01*
X78806480Y-78620000D02*
X79720000Y-78620000D01*
X31806480Y-78620000D02*
X76413520Y-78620000D01*
X28500000Y-78620000D02*
X28500000Y-77272060D01*
X28500000Y-78620000D02*
X29413520Y-78620000D01*
X79720000Y-81110000D02*
X79720000Y-77272061D01*
X28500000Y-81110000D02*
X28500000Y-78620000D01*
X79299937Y-81380000D02*
X79657000Y-81380000D01*
X76760000Y-81380000D02*
X77180000Y-81380000D01*
X74220000Y-81380000D02*
X74640000Y-81380000D01*
X71680000Y-81380000D02*
X72100000Y-81380000D01*
X69140000Y-81380000D02*
X69560000Y-81380000D01*
X66600000Y-81380000D02*
X67020000Y-81380000D01*
X64060000Y-81380000D02*
X64480000Y-81380000D01*
X61520000Y-81380000D02*
X61940000Y-81380000D01*
X58980000Y-81380000D02*
X59400000Y-81380000D01*
X56440000Y-81380000D02*
X56860000Y-81380000D01*
X53900000Y-81380000D02*
X54320000Y-81380000D01*
X51360000Y-81380000D02*
X51780000Y-81380000D01*
X48820000Y-81380000D02*
X49240000Y-81380000D01*
X46280000Y-81380000D02*
X46700000Y-81380000D01*
X43740000Y-81380000D02*
X44160000Y-81380000D01*
X41200000Y-81380000D02*
X41620000Y-81380000D01*
X38660000Y-81380000D02*
X39080000Y-81380000D01*
X36120000Y-81380000D02*
X36540000Y-81380000D01*
X33580000Y-81380000D02*
X34000000Y-81380000D01*
X31040000Y-81380000D02*
X31460000Y-81380000D01*
X28920063Y-81380000D02*
X28563000Y-81380000D01*
X28920000Y-81689676D02*
X28920000Y-82200000D01*
X76760000Y-81720000D02*
X77180000Y-81720000D01*
X74220000Y-81720000D02*
X74640000Y-81720000D01*
X71680000Y-81720000D02*
X72100000Y-81720000D01*
X69140000Y-81720000D02*
X69560000Y-81720000D01*
X66600000Y-81720000D02*
X67020000Y-81720000D01*
X64060000Y-81720000D02*
X64480000Y-81720000D01*
X61520000Y-81720000D02*
X61940000Y-81720000D01*
X58980000Y-81720000D02*
X59400000Y-81720000D01*
X56440000Y-81720000D02*
X56860000Y-81720000D01*
X53900000Y-81720000D02*
X54320000Y-81720000D01*
X51360000Y-81720000D02*
X51780000Y-81720000D01*
X48820000Y-81720000D02*
X49240000Y-81720000D01*
X46280000Y-81720000D02*
X46700000Y-81720000D01*
X43740000Y-81720000D02*
X44160000Y-81720000D01*
X41200000Y-81720000D02*
X41620000Y-81720000D01*
X38660000Y-81720000D02*
X39080000Y-81720000D01*
X36120000Y-81720000D02*
X36540000Y-81720000D01*
X33580000Y-81720000D02*
X34000000Y-81720000D01*
X31040000Y-81720000D02*
X31460000Y-81720000D01*
X31040000Y-81720000D02*
X31040000Y-82200000D01*
D10*
%TO.C,SD1*%
X31220000Y-37540000D02*
G75*
G02*
X31220000Y-52780000I-12699999J-7620000D01*
G01*
X28680000Y-57860000D02*
X51540000Y-57860000D01*
X51540000Y-32460000D01*
X28680000Y-32460000D01*
X28680000Y-57860000D01*
X43920000Y-37540000D02*
X31220000Y-37540000D01*
X43920000Y-37540000D02*
X43920000Y-52780000D01*
X43920000Y-52780000D02*
X31220000Y-52780000D01*
X31220000Y-52780000D02*
X43920000Y-52780000D01*
D12*
%TO.C,SW1*%
X43500000Y-25250000D02*
X43500000Y-26750000D01*
X44750000Y-29250000D02*
X49250000Y-29250000D01*
X49250000Y-22750000D02*
X44750000Y-22750000D01*
X50500000Y-26750000D02*
X50500000Y-25250000D01*
%TD*%
M02*
